<?xml version="1.0" encoding="UTF-8" standalone="no"?>
<!DOCTYPE svg PUBLIC "-//W3C//DTD SVG 1.1//EN" "http://www.w3.org/Graphics/SVG/1.1/DTD/svg11.dtd">
<svg width="100%" height="100%" viewBox="0 0 1356 1286" version="1.1" xmlns="http://www.w3.org/2000/svg" xmlns:xlink="http://www.w3.org/1999/xlink" xml:space="preserve" xmlns:serif="http://www.serif.com/" style="fill-rule:evenodd;clip-rule:evenodd;stroke-linejoin:round;stroke-miterlimit:2;">
    <g transform="matrix(-1.90788,0.671057,0.671057,1.90788,1078.8,-335.375)">
        <path d="M248.605,500.209C247.754,500.367 246.777,500.596 245.67,500.896C233.005,504.355 219.772,508.527 205.972,513.409C192.571,518.154 180.053,523.369 168.429,529.052C164.267,531.087 160.247,533.372 156.364,535.903C156.222,535.996 156.2,536.121 156.293,536.285L156.369,536.411C156.702,536.967 156.282,537.703 155.556,537.834C155.104,537.916 154.711,537.889 154.378,537.747C152.824,537.087 152.676,535.56 153.822,534.343C154.951,533.149 156.587,531.916 158.731,530.656C162.075,528.682 164.409,527.34 165.745,526.625C165.882,526.549 165.887,526.358 165.756,526.276C164.207,525.338 163.1,524.187 162.44,522.818C161.987,521.885 161.627,521.613 160.722,521.143C159.653,520.593 159.162,520.145 158.878,519.06C158.824,518.853 159.025,518.678 159.222,518.754C159.653,518.929 160.067,519.256 160.465,519.731C160.482,519.753 160.509,519.763 160.536,519.769C160.591,519.774 160.635,519.763 160.667,519.736C160.705,519.698 160.716,519.654 160.695,519.605C160.296,518.585 160.095,517.865 160.084,517.445C160.045,515.858 160.776,514.816 162.287,514.32C164.584,513.573 166.88,513.245 169.182,513.349C169.384,513.354 169.498,513.262 169.536,513.06L169.678,512.307C169.711,512.127 169.814,511.969 169.967,511.865C171.467,510.845 173.054,510.447 174.729,510.671C174.931,510.698 175.045,510.813 175.067,511.014C175.253,512.754 174.031,514.516 173.518,515.754C173.164,516.616 172.962,517.511 172.918,518.433C172.836,520.085 172.362,521.7 171.494,523.287C171.369,523.511 171.424,523.571 171.658,523.467C174.14,522.36 176.671,521.209 179.245,520.025C182.409,518.569 184.945,517.445 186.854,516.649C206.305,508.544 226.459,501.6 247.312,495.813C247.579,495.742 247.699,495.567 247.672,495.289C247.585,494.356 247.596,493.407 247.705,492.431C247.77,491.826 247.988,490.904 248.354,489.666C248.937,487.707 249.347,485.711 249.576,483.677C249.63,483.207 250.061,482.351 250.317,481.735C250.879,480.371 252.308,480.284 253.361,481.135C253.841,481.522 254.326,482.024 254.823,482.629C255.423,483.36 255.281,484.707 255.292,485.776C255.297,486.022 255.521,486.202 255.761,486.153C258.739,485.504 260.741,484.898 263.337,485.029C263.845,485.051 264.537,485.286 265.415,485.733C265.983,486.022 266.588,486.24 267.237,486.387C267.412,486.426 267.581,486.415 267.75,486.349L272.534,484.424C272.932,484.266 273.194,483.982 273.325,483.578C273.886,481.871 274.906,480.529 276.739,480.044C276.919,479.995 277.088,480.011 277.257,480.093C278.294,480.611 278.915,481.32 279.123,482.22C279.488,483.813 279.384,485.449 278.806,487.124C278.697,487.446 278.981,487.762 279.308,487.686C298.786,483.333 318.248,480.24 337.688,478.407C356.626,476.624 375.258,475.517 393.591,475.086C393.793,475.08 393.956,474.998 394.071,474.835C394.927,473.624 396.04,472.806 397.409,472.375C400.578,471.377 403.965,470.684 407.565,470.297C407.865,470.264 408.16,470.351 408.4,470.531L409.752,471.584C409.9,471.693 410.058,471.764 410.232,471.797C410.871,471.911 411.443,472.053 411.962,472.233C412.856,472.544 413.282,473.488 413.483,474.257C413.527,474.442 413.685,474.573 413.876,474.589C415.965,474.758 417.962,474.638 419.865,474.224C420.285,474.131 420.514,474.3 420.558,474.72L420.574,474.862C420.612,475.217 420.356,475.533 420.001,475.571L413.882,476.204C413.669,476.226 413.554,476.346 413.538,476.558C413.369,479.018 413.151,480.589 412.889,481.277C412.142,483.229 411.394,485.177 410.636,487.113C409.409,490.271 407.756,492.982 405.667,495.245C404.298,496.735 401.969,498.829 398.669,501.529C394.414,505.015 389.724,507.829 384.591,509.973C382.044,511.036 379.355,512.078 376.535,513.109C374.784,513.747 372.684,514.893 370.229,516.545C368.26,517.871 366.351,519.311 364.502,520.865C360.907,523.882 356.489,527.329 351.237,531.202C350.609,531.66 350.075,532.691 349.628,534.294C349.589,534.431 349.448,534.507 349.311,534.463C346.824,533.656 345.755,530.111 346.524,527.956C346.797,527.187 347.615,526.074 348.973,524.607C353.517,519.709 356.113,516.878 356.757,516.114C362.62,509.165 366.264,505.042 367.698,503.744C370.884,500.869 373.556,498.36 375.722,496.222C381.253,490.746 386.32,484.931 390.918,478.778C391.098,478.538 391.038,478.429 390.738,478.451C368.129,480.12 345.428,482.427 322.628,485.367C303.979,487.773 285.608,491.1 267.521,495.338C266.261,495.638 266.054,496.773 265.23,498.256C263.408,501.524 260.937,502.107 257.823,500.007C257.676,499.909 257.588,499.947 257.566,500.127C257.348,501.998 256.814,503.913 255.963,505.871C255.586,506.727 254.746,508.767 253.443,512.002C253.372,512.171 253.356,512.34 253.394,512.514C253.726,514.091 254.065,515.231 254.01,516.594C253.896,519.545 253.35,522.42 252.374,525.207C250.247,531.289 247.47,537.038 244.05,542.443C243.647,543.081 243.821,543.392 244.574,543.381C258.014,543.169 272.048,543.54 286.672,544.489C287.664,544.549 288.597,544.211 289.475,543.463C292.513,540.878 295.961,539.198 299.828,538.418C303.068,537.769 304.77,537.425 304.933,537.392C305.632,537.251 306.444,536.694 307.372,535.729C308.795,534.24 310.399,532.658 312.171,530.983C313.988,529.271 316.262,528.202 319.001,527.553C321.106,527.051 322.415,526.723 322.933,526.576C325.644,525.785 327.515,525.752 330.679,525.305C332.402,525.065 333.815,525.529 334.917,526.702C335.631,527.465 336.024,527.427 337.164,527.64C339.019,527.983 340.049,529.167 340.251,531.191C340.573,534.338 339.722,536.852 338.871,540.349C338.822,540.551 338.522,540.965 337.982,541.592C337.868,541.729 337.786,541.887 337.737,542.061C337.524,542.852 337.617,543.807 337.229,544.641C336.602,545.989 335.702,547.789 334.524,550.03C334.377,550.314 334.459,550.489 334.769,550.549C341.309,551.83 347.937,553.27 354.651,554.858C377.118,560.181 399.874,566.323 422.92,573.288C423.121,573.348 423.307,573.152 423.231,572.956C422.5,571.09 421.485,568.936 420.252,567.392C419.538,566.503 418.96,565.718 418.518,565.025C417.154,562.898 416.571,561.043 418.36,559.019C419.56,557.672 420.34,556.729 420.694,556.194C422.243,553.881 423.061,552.103 423.143,550.865C423.312,548.367 423.585,546.321 423.951,544.723C424.687,541.511 425.189,538.538 425.456,535.805C425.516,535.222 425.249,534.943 424.665,534.971C421.703,535.118 418.343,534.905 415.758,533.247C413.762,531.965 411.809,530.607 410.707,528.529C409.322,525.916 408.514,524.427 408.285,524.056C407.336,522.534 406.872,520.942 406.894,519.278C406.916,517.173 407.882,516.174 409.922,515.651C412.949,514.882 415.578,514.353 417.82,514.064C419.658,513.829 422.32,512.733 424.24,511.789C430.349,508.794 436.19,505.162 441.759,500.891C448.556,495.676 452.281,492.818 452.941,492.322C455.259,490.56 457.812,489.507 460.588,489.175C460.823,489.147 460.987,488.929 460.948,488.695C460.73,487.293 460.436,485.744 460.065,484.047C459.563,481.757 458.156,475.347 455.843,464.826C453.247,453.022 451.883,441.699 451.752,430.861C451.725,428.597 451.981,426.579 452.527,424.812C452.816,423.873 453.503,423.279 454.578,423.033C456.067,422.69 457.719,422.286 459.53,421.828C460.25,421.648 460.987,421.741 461.657,422.166C462.263,422.553 462.945,422.886 463.703,423.164C464.199,423.344 464.548,423.792 464.603,424.321L465.377,431.788C465.405,432.022 465.53,432.137 465.765,432.121C467.123,432.05 468.503,431.908 469.905,431.701C472.25,431.351 473.51,431.073 475.299,429.933C481.337,426.088 486.77,419.188 487.015,411.775C487.059,410.488 486.639,409.206 485.755,407.935C481.905,402.388 478.697,397.179 476.139,392.319C474.688,389.559 471.388,386.276 469.648,383.39C467.979,380.619 466.697,377.837 466.452,374.576C466.354,373.239 466.637,371.216 467.297,368.516C467.783,366.525 468.677,363.765 469.97,360.23C470.096,359.887 469.97,359.505 469.665,359.298C469.136,358.943 468.672,358.594 468.263,358.25C467.859,357.912 467.477,357.481 467.112,356.958C463.299,351.481 461.167,345.858 460.714,340.087C460.387,335.876 459.901,331.981 459.258,328.398C458.69,325.223 458.396,323.205 458.368,322.338C458.314,320.456 458.521,318.411 458.996,316.191C459.307,314.74 459.148,313.611 458.538,312.154C457.834,310.469 457.452,309.094 457.381,308.025C457.185,304.851 459.056,302.107 461.139,299.713C463.152,297.394 465.601,296.009 468.481,295.556C468.661,295.529 468.781,295.425 468.83,295.245C469.665,292.229 471.219,289.682 473.494,287.593C474.694,286.496 475.49,285.738 475.883,285.318C476.014,285.182 475.997,285.062 475.839,284.958C472.959,283.109 470.27,280.938 467.777,278.451C467.385,278.053 466.73,278.107 466.403,278.565C465.972,279.176 465.257,280.115 464.87,281.042C464.057,282.989 463.196,284.849 462.296,286.622C461.145,288.88 460.032,291.067 457.49,290.914C456.868,290.876 456.105,290.484 455.194,289.742C454.108,288.853 453.17,288.056 452.368,287.347C451.85,286.884 451.43,286.344 451.114,285.727C450.307,284.14 449.325,282.405 448.174,280.535C446.614,277.993 445.976,275.107 446.254,271.878C446.609,267.836 446.919,264.662 446.63,261.373C446.57,260.713 446.249,259.786 445.659,258.58C443.767,254.735 442.049,250.753 442.485,246.509C442.659,244.829 443.309,242.719 444.438,240.177C447.018,234.373 450.454,229.175 454.747,224.577C454.823,224.495 454.845,224.397 454.818,224.282C453.176,218.206 451.649,211.666 446.298,208.033C445.354,207.39 444.099,207.182 442.539,207.417C442.343,207.45 442.179,207.581 442.109,207.761C441.034,210.515 439.147,213.03 436.441,215.299C436.12,215.571 435.672,215.648 435.274,215.501C432.263,214.388 430.3,210.204 429.803,207.368C429.421,205.181 430.981,202.682 433.13,201.597C435.923,200.19 439.152,199.132 441.945,200.168C442.779,200.479 443.494,200.664 444.099,200.735C445.589,200.904 446.57,201.106 447.045,201.33C449.821,202.639 452.101,204.586 453.896,207.177C455.27,209.157 456.378,211.044 457.223,212.839C458.428,215.402 459.705,218.282 461.052,221.473C461.221,221.86 461.505,221.991 461.903,221.866C463.403,221.391 465.432,221.293 466.937,222.215C467.008,222.259 467.576,222.51 468.639,222.962C469.365,223.273 469.73,223.906 469.725,224.85C469.719,226.808 469.528,228.384 469.157,229.573C468.579,231.422 468.023,232.944 467.483,234.139C465.797,237.897 464.232,241.48 462.792,244.878C462.47,245.648 462.519,246.378 462.945,247.082C463.725,248.369 464.499,249.586 465.257,250.737C468.056,254.953 468.279,259.371 468.683,265.207C468.699,265.382 468.787,265.551 468.928,265.66L469.708,266.266C469.801,266.331 469.872,266.424 469.916,266.533C470.297,267.471 470.69,268.966 471.301,270.046C472.894,272.855 474.803,275.446 477.034,277.818C478.048,278.904 478.932,279.525 479.679,279.689C481.092,279.989 482.134,280.262 482.81,280.496C483.732,280.818 484.326,281.325 484.37,282.416C484.463,284.495 484.092,286.207 483.268,287.555C482.112,289.431 480.601,291.422 478.741,293.522C478.397,293.904 478.245,294.427 478.283,295.098C478.294,295.289 478.386,295.42 478.556,295.496C478.779,295.594 479.014,295.676 479.248,295.736C480.688,296.124 481.561,297.782 481.648,299.151C481.714,300.187 481.496,301.36 480.994,302.663C480.857,303.023 480.497,304.076 479.903,305.822C479.516,306.956 479.341,308.031 479.379,309.051C479.499,312.307 479.379,315.318 479.025,318.083C478.632,321.143 478.414,324.465 478.365,328.049C478.316,331.523 477.917,335.581 477.165,340.212C476.39,344.979 476.685,350.123 478.801,354.318C479.412,355.523 479.739,356.347 479.783,356.783C480.126,360.028 480.105,362.357 479.728,363.77C479.112,366.077 478.572,368.401 478.103,370.741C477.819,372.17 477.896,373.217 478.485,374.466C478.594,374.696 478.872,374.794 479.101,374.685C479.919,374.287 480.721,374.188 481.512,374.39C481.67,374.428 482.199,374.756 483.094,375.361C483.666,375.754 484.332,375.966 485.09,375.999C485.657,376.021 486.143,376.425 486.263,376.981C487.577,382.806 489.71,388.855 492.661,395.134C494.734,399.546 495.906,402.23 496.179,403.19C497.597,408.224 497.33,413.423 495.383,418.784C493.01,425.292 489.154,430.533 483.808,434.51C480.716,436.806 477.459,438.246 474.039,438.824C471.836,439.195 469.561,439.326 467.21,439.211C466.959,439.201 466.774,439.451 466.861,439.686C467.128,440.417 467.614,441.273 468.323,442.255C471.416,446.526 473.734,449.837 475.283,452.177C477.699,455.831 479.461,458.984 480.563,461.635C484.201,470.378 484.632,479.498 481.855,488.995C481.414,490.495 481.19,491.509 481.179,492.049C481.141,494.411 480.999,497.1 480.094,499.304C479.205,501.469 478.752,502.587 478.725,502.647C478.185,504.158 477.448,505.756 476.516,507.431C476.101,508.173 475.43,508.931 474.508,509.705C472.774,511.162 471.416,513.027 469.779,514.194C466.463,516.551 463.365,518.629 460.49,520.434C456.203,523.123 453.088,525.005 451.152,526.074C445.627,529.123 439.823,531.491 433.747,533.176C433.403,533.274 433.158,533.58 433.147,533.94C433.016,537.954 432.492,542.056 431.581,546.24C431.489,546.681 431.625,547.38 431.996,548.334C432.929,550.729 432.541,553.281 431.734,555.943C430.529,559.898 428.696,563.394 426.236,566.421C426.127,566.558 426.1,566.738 426.171,566.896C428.609,572.432 431.014,576.365 429.176,581.885C427.905,585.687 426.209,589.227 424.087,592.494C423.983,592.646 424.005,592.783 424.141,592.908C424.981,593.672 425.445,594.577 425.527,595.63C425.538,595.788 425.511,596.748 425.445,598.521C425.358,600.948 424.638,603.157 423.291,605.154C423.089,605.448 423.018,605.885 423.078,606.457C423.1,606.637 423.072,606.806 423.001,606.975C422.08,609.125 421.371,610.663 420.863,611.595C419.445,614.225 416.489,615.708 413.603,616.859C409.272,618.588 404.805,619.543 400.207,619.728C399.956,619.739 399.787,619.984 399.869,620.219C401.031,623.694 402.613,627.975 404.614,633.064C407.053,639.25 410.396,645.904 415.802,648.61C416.2,648.806 417.678,649.597 420.236,650.977C424.071,653.044 427.245,655.81 429.825,659.022C432.209,662 433.965,664.188 435.094,665.584C436.3,667.073 437.903,668.017 439.894,668.415C441.181,668.671 442.305,668.819 443.265,668.857C443.718,668.873 443.963,668.66 443.996,668.208C444.35,663.26 445.894,658.548 448.616,654.07C450.787,650.497 453.688,647.033 457.316,643.69C460.223,641.001 463.359,639.179 466.714,638.219C468.181,637.799 470.139,637.324 472.594,636.795C473.27,636.648 473.886,636.321 474.388,635.846C476.008,634.313 477.606,632.846 479.183,631.455C480.443,630.348 482.357,629.181 484.926,627.943C485.335,627.741 485.892,627.261 486.606,626.503C487.059,626.017 487.512,625.444 487.97,624.784C491.172,620.208 493.872,615.332 496.07,610.166C499.321,602.525 501.623,596.737 502.981,592.816C504.377,588.785 505.643,584.634 506.777,580.363C507.186,578.819 507.393,576.812 507.393,574.336C507.393,573.545 507.606,572.721 508.026,571.859C509.766,568.325 511.206,565.019 512.668,562.554C513.41,561.305 514.539,560.47 516.05,560.039C518.881,559.227 521.559,558.67 524.084,558.36C524.128,558.354 524.477,558.289 525.126,558.152C527.052,557.765 527.122,559.096 528.497,559.565C529.561,559.925 530.662,559.919 531.393,561.021C531.65,561.409 531.797,561.987 531.846,562.756C532.026,565.772 531.813,568.298 531.208,570.332C529.457,576.218 526.801,582.774 523.288,588.005C522.442,589.265 521.292,590.143 519.846,590.639C519.312,590.825 518.412,590.776 517.735,591.076C517.566,591.146 517.441,591.266 517.353,591.43C514.419,596.765 512.695,599.874 512.183,600.763C511.424,602.077 510.372,603.675 509.024,605.546C506.303,609.332 503.035,613.974 499.228,619.466C497.603,621.812 495.754,624.212 493.675,626.661C493.534,626.83 493.599,627.086 493.806,627.163C494.215,627.315 494.592,627.544 494.93,627.85C495.066,627.975 495.148,628.133 495.181,628.313C495.694,631.27 494.183,634.799 492.825,637.919C490.845,642.462 487.288,646.03 483.317,648.648C479.608,651.097 477.056,650.142 472.948,649.335C469.403,648.642 465.645,650.017 462.547,652.062C458.036,655.041 454.359,658.766 451.507,663.239C450.198,665.295 449.489,667.542 449.374,669.975C449.352,670.515 449.669,671.011 450.165,671.213C452.947,672.348 455.058,672.888 455.45,676.008C455.75,678.413 455.445,680.797 454.534,683.164C453.612,685.564 452.767,687.446 451.987,688.804C450.421,691.542 448.239,692.48 444.994,692.344C441.552,692.197 437.025,691.907 433.97,690.293C429.323,687.838 425.511,684.44 422.538,680.104C421.327,678.331 419.101,674.284 415.862,667.957C415.289,666.833 414.482,665.671 413.445,664.471C411.029,661.679 408.062,659.257 405.972,656.491C402.869,652.379 400.523,647.917 398.942,643.106C396.591,635.966 394.845,627.948 393.7,619.046C393.678,618.866 393.574,618.768 393.394,618.741C384.16,617.563 376.485,617.224 370.371,617.721C359.326,618.615 353.56,619.079 353.075,619.112C350.68,619.27 347.991,619.357 345.008,619.379C344.811,619.379 344.664,619.554 344.697,619.75C345.269,623.197 345.951,626.513 346.748,629.704C347.238,631.663 347.898,633.392 348.722,634.886C349.017,635.421 349.497,635.612 350.157,635.464C352.971,634.826 355.671,634.957 358.251,635.846C362.293,637.237 366.286,639.599 369.815,642.348C370.835,643.139 372.215,644.006 373.96,644.95C376.987,646.592 379.671,648.086 382,649.439C382.518,649.739 383.336,649.957 384.449,650.093C385.894,650.268 387.793,650.513 390.154,650.835C391.125,650.966 392.118,651.315 393.127,651.882C393.902,652.319 394.884,652.799 396.067,653.328C396.258,653.415 396.493,653.639 396.765,653.993C396.951,654.233 397.054,654.517 397.071,654.844C397.256,657.85 397.022,660.13 396.362,661.69C396.138,662.23 395.871,662.971 395.565,663.92C395.2,665.05 394.938,665.791 394.78,666.151C393.52,668.96 392.598,671.568 389.462,672.789C388.382,673.209 386.424,673.52 383.593,673.711C380.015,673.957 377.233,672.915 374.118,670.799C371.069,668.731 368.347,666.484 365.947,664.068C364.867,662.982 363.52,661.373 361.906,659.246C359.309,655.826 356.817,651.926 353.053,650.224C348.978,648.375 345.575,646.853 343.169,642.91C341.255,639.768 340.191,636.386 339.989,632.77C339.591,625.592 339.319,620.906 339.182,618.708C339.166,618.517 339.068,618.381 338.888,618.31C337.639,617.814 336.013,617.334 334.911,616.652C331.873,614.781 329.086,612.697 326.56,610.395C324.079,608.137 322.175,605.514 319.371,601.925C318.597,600.937 317.833,600.239 316.611,599.863C310.29,597.899 305.25,596.448 301.492,595.505C299.053,594.894 297.052,595.085 295.475,596.083C294.499,596.699 293.866,596.377 293.577,595.117C293.517,594.85 293.473,594.316 293.446,593.519C293.403,592.259 293.893,591.256 294.919,590.514C295.972,589.75 296.861,589.27 297.575,589.079C300.002,588.419 302.293,588.114 305.015,588.288C308.937,588.545 313.813,588.637 319.644,588.572C320.762,588.561 321.924,588.785 323.13,589.237C327.111,590.743 330.22,593.683 333.782,596.585C336.826,599.066 340.246,600.266 344.037,600.185C346.955,600.125 349.338,599.917 352.251,599.361C362.849,597.321 372.624,595.641 383.451,595.265C386.974,595.139 392.576,595.134 400.251,595.248C401.085,595.265 401.92,595.123 402.705,594.828C404.407,594.196 406.676,593.148 408.689,592.761C409.905,592.527 410.811,592.194 411.4,591.757C414.067,589.783 416.718,587.574 419.352,585.13C421.305,583.319 424.632,579.005 424.305,576.098C424.251,575.639 423.912,575.263 423.46,575.181C415.698,573.708 408.787,572.279 402.722,570.899C388.305,567.61 369.842,563.443 347.342,558.387C340.628,556.876 334.48,555.6 328.9,554.547C327.171,554.22 324.935,555.769 321.4,557.394C318.51,558.725 315.095,559.543 311.964,559.014C311.435,558.921 310.873,558.807 310.268,558.665C309.848,558.561 309.291,558.643 308.61,558.899C306.897,559.549 305.157,560.132 303.39,560.661C303.362,560.672 303.335,560.65 303.33,560.623L303.308,560.399C303.297,560.323 303.341,560.252 303.412,560.225L308.533,558.163C308.73,558.081 308.768,557.82 308.599,557.689C306.395,555.998 303.968,554.165 301.366,553.816C294.864,552.954 288.45,556.456 284.866,561.883C283.268,564.299 283.192,566.579 284.648,568.718C285.308,569.683 285.706,570.698 284.719,571.478C284.572,571.592 284.414,571.63 284.234,571.587C283.661,571.45 283.126,571.194 282.635,570.823C280.53,569.214 279.395,567.059 279.232,564.359C278.894,558.725 281.135,553.887 284.157,549.332C284.277,549.152 284.157,548.912 283.944,548.901C269.594,547.947 255.352,547.543 241.225,547.701C240.663,547.707 240.265,547.865 240.03,548.165C237.554,551.421 234.701,554.612 231.472,557.738C229.754,559.401 228.112,560.607 226.547,561.343C224.027,562.538 222.025,562.14 220.547,560.154C220.241,559.745 219.674,559.63 219.232,559.887C216.587,561.43 214.814,562.456 213.925,562.963C210.734,564.785 207.38,565.865 203.867,566.198C202.345,566.345 198.5,566.301 192.325,566.078C192.145,566.072 191.987,566.127 191.851,566.252C190.951,567.087 189.827,568.15 188.485,569.443C185.747,572.083 182.343,573.899 178.274,574.892C176.938,575.219 175.902,575.432 175.154,575.53C172.296,575.918 169.836,577.325 167.605,578.972C165.211,580.745 163.335,582.408 161.965,583.968C156.456,590.246 151.384,595.93 144.364,598.805C143.556,599.137 142.444,599.132 141.02,598.794C139.678,598.477 138.162,596.525 137.044,596.459C132.058,596.176 128.54,592.297 125.546,588.147C124.618,586.859 123.282,586.499 121.766,586.052C117.173,584.688 114.222,583.903 112.913,583.696C110.917,583.379 108.637,583.172 106.079,583.079C104.104,583.008 101.982,582.447 100.297,581.312C95.944,578.399 93.981,574.816 91.422,570.032C90.222,567.779 89.355,565.565 88.815,563.389C88.766,563.192 88.657,563.143 88.482,563.247C87.561,563.776 86.704,563.541 85.913,562.543C84.419,560.661 83.399,558.24 82.853,555.283C82.662,554.274 81.942,552.796 80.688,550.849C80.055,549.867 79.619,550.025 78.392,549.818C77.246,549.621 75.763,548.012 75.07,546.992C74.748,546.518 74.273,546.18 73.635,545.972C71.143,545.16 69.523,544.674 68.764,544.521C64.417,543.654 61.968,543.136 61.406,542.972C60.272,542.64 58.837,542.421 57.103,542.318C52.27,542.018 47.666,540.098 44.759,536.247C43.745,534.9 42.588,532.827 41.29,530.018C40.319,527.929 39.741,525.556 39.561,522.911C39.239,518.165 39.305,513.354 38.808,508.734C38.465,505.549 38.252,503.504 38.165,502.593C37.63,497.231 38.05,492.158 39.43,487.364C39.796,486.098 40.499,484.751 41.552,483.322C42.07,482.624 43.341,481.669 45.375,480.464C46.794,479.624 47.945,478.424 48.823,476.869C49.33,475.969 49.821,474.431 50.306,472.26C52.008,464.564 53.47,457.539 54.697,451.184C55.886,445.01 56.361,440.128 56.704,433.179C56.994,427.282 57.392,422.826 57.899,419.81C58.984,413.357 59.977,407.243 60.872,401.455C61.134,399.775 61.93,397.43 62.694,395.728C63.915,393.017 64.755,391.19 65.214,390.246C67.106,386.346 67.903,382.343 67.597,378.236C67.237,373.441 67.172,369.525 67.395,366.497C67.968,358.801 68.29,354.459 68.35,353.478C68.475,351.574 68.486,348.923 68.377,345.536C68.148,338.39 68.743,331.491 70.155,324.841C71.644,317.865 73.848,310.6 76.755,303.056C78.299,299.053 80.644,294.64 82.401,290.974C84.473,286.655 86.879,280.48 88.673,276.138C89.53,274.066 90.457,272.135 91.45,270.34C93.637,266.375 96.102,262.235 98.835,257.915C99.713,256.524 101.611,253.12 104.524,247.715C105.25,246.368 106.21,244.96 107.055,243.918C110.519,239.659 114.009,235.426 117.539,231.22C120.064,228.215 123.517,223.388 126.511,218.626C128.578,215.337 131.044,211.721 133.913,207.777C138.249,201.804 143.491,196.317 149.633,191.315C151.029,190.175 152.48,188.583 153.985,186.532C158.54,180.324 163.427,174.03 168.647,167.643C169.482,166.623 170.513,165.466 171.734,164.185C174.325,161.468 177.62,159.45 181.618,158.125C185.049,156.99 189.756,155.763 193.847,154.246C200.785,151.672 204.641,150.243 205.411,149.959C206.938,149.392 208.389,149.087 209.818,148.563C210.39,148.356 210.849,148.001 211.198,147.499C212.24,145.999 213.412,144.434 214.721,142.814C216.254,140.921 218.643,139.241 221.278,137.818C225.249,135.668 228.014,134.076 231.598,131.605C235.759,128.736 240.728,126.461 244.296,124.399C248.708,121.847 252.423,118.732 257.348,114.93C257.408,114.881 258.565,114.183 260.817,112.836C261.761,112.269 262.983,111.69 264.483,111.107C267.565,109.901 270.695,108.32 273.87,106.372C276.172,104.96 277.088,106.994 277.301,108.832C277.317,108.985 277.519,109.034 277.606,108.909C282.314,102.107 286.721,95.136 290.408,87.849C292.35,84.014 293.577,81.871 296.697,79.28C297.161,78.893 300.362,76.585 306.313,72.358C309.968,69.756 313.033,67.809 315.515,66.505C321.499,63.358 326.239,61.133 329.724,59.824C334.486,58.035 339.766,56.796 345.558,56.104C349.066,55.684 351.673,55.989 355.36,56.235C356.849,56.338 358.306,56.185 359.762,55.542C361.731,54.675 363.253,53.955 364.333,53.376C368.702,51.047 372.695,48.898 376.311,46.929C377.511,46.275 378.995,45.636 380.756,45.009C389.271,41.982 398.042,40.951 407.074,41.906C413.26,42.56 420.241,42.997 426.416,41.895C427.578,41.687 430.3,40.918 434.581,39.587C438.514,38.36 441.923,37.509 444.809,37.029C447.803,36.533 450.285,36.451 452.265,36.784C453.907,37.057 455.761,37.924 457.828,39.386C457.954,39.473 458.03,39.593 458.047,39.751L458.292,42.14C458.308,42.32 458.385,42.473 458.521,42.598C459.236,43.253 460.316,43.258 460.376,44.546C460.436,45.827 460.152,47.175 459.525,48.598C459.399,48.887 459.47,49.116 459.727,49.286C460.408,49.744 460.801,50.535 460.894,51.653C461.221,55.618 460.632,59.245 459.127,62.54C457.807,65.425 456.65,67.82 455.663,69.729C455.276,70.476 455.047,71.611 454.987,73.122C454.807,77.327 454.796,80.802 454.954,83.534C455.412,91.482 455.75,96.162 454.725,102.98C454.168,106.672 452.548,112.05 452.03,115.83C451.387,120.5 451.458,125.223 452.248,129.996C452.292,130.263 452.45,130.394 452.718,130.399C454.098,130.427 455.347,130.699 456.476,131.212C457.321,131.599 457.752,131.796 457.763,131.801C463.861,134.147 469.959,135.614 476.063,136.203C476.69,136.263 477.366,136.558 478.081,137.092C478.217,137.196 478.299,137.332 478.321,137.501C478.556,139.214 478.305,140.698 477.568,141.952C477.388,142.252 477.443,142.503 477.737,142.694C480.596,144.565 483.961,146.37 487.681,147.887C490.397,148.994 493.315,150.199 496.435,151.503C497.581,151.983 500.39,153.494 504.868,156.041C505.37,156.325 506.39,156.57 507.023,156.434C509.646,155.866 511.419,155.616 512.346,155.681C519.693,156.183 526.479,157.399 532.702,159.336C534.279,159.821 536.439,160.797 539.193,162.254C542.962,164.245 547.331,167.621 550.549,169.557C559.664,175.039 569.831,178.17 579.878,181.655C584.155,183.139 587.138,183.892 591.709,184.486C595.162,184.934 598.255,185.419 600.987,185.948C603.415,186.412 605.329,187.006 606.736,187.726C609.78,189.281 611.553,190.175 612.049,190.421C614.989,191.855 616.44,194.228 616.413,197.544C616.353,204.537 616.331,209.544 616.353,212.571C616.358,213.379 616.822,214.11 617.542,214.464C618.873,215.119 620.269,215.844 621.725,216.646C622.658,217.153 623.853,218.282 625.309,220.022C625.98,220.824 626.809,222.22 627.807,224.206C630.371,229.3 633.016,234.013 634.631,238.399C636.207,242.675 637.238,245.533 637.729,246.968C638.558,249.4 638.901,252.204 638.754,255.384C638.732,255.891 639.142,256.606 639.987,257.527C640.112,257.664 640.194,257.817 640.232,257.997C640.522,259.387 640.276,260.598 639.496,261.618C639.278,261.902 638.891,261.984 638.58,261.815C636.016,260.424 634.827,258.809 633.338,256.022C631.036,251.708 629.143,248.615 626.972,244.355C625.113,240.706 622.893,236.98 620.307,233.189C618.823,231.019 618.054,229.05 614.891,228.793C612.502,228.597 610.62,228.788 608.722,227.55C606.862,226.333 605.455,225.062 604.5,223.726C603.949,222.957 603.005,221.315 601.669,218.801C600.715,217.006 599.913,215.255 599.264,213.542C599.122,213.171 598.805,212.899 598.418,212.822C594.693,212.091 591.12,211.246 587.711,210.286C584.111,209.272 580.844,207.635 577.904,205.372C574.075,202.421 571.255,200.364 569.438,199.203C565.506,196.677 561.802,194.255 558.322,191.937C550.042,186.412 542.728,179.943 536.373,172.53C534.644,170.506 531.802,168.57 529.266,167.277C525.344,165.286 520.904,163.525 515.952,161.997C514.572,161.572 514.495,161.736 515.733,162.483C521.352,165.886 525.835,169.874 529.637,175.328C532.119,178.884 534.819,183.035 538.271,186.592C538.975,187.317 541.38,189.39 545.488,192.81C545.624,192.924 545.782,192.957 545.951,192.908C548.439,192.243 551.04,191.795 553.757,191.572C554.853,191.484 555.759,191.855 556.479,192.679C556.599,192.815 556.74,192.913 556.904,192.979C557.989,193.415 559.304,193.732 560.155,194.446C561.971,195.968 563.095,197.768 563.52,199.846C563.58,200.152 563.875,200.359 564.18,200.31C565.844,200.053 567.229,200.435 568.337,201.455C568.473,201.581 568.637,201.668 568.817,201.706C571.435,202.262 572.76,203.768 572.891,206.588C572.995,208.944 572.618,211.208 571.757,213.373C570.922,215.457 570.388,216.722 570.142,217.17C569.438,218.473 568.566,219.471 567.535,220.164C567.382,220.268 567.306,220.41 567.3,220.6C567.273,224.293 566.935,227.806 566.286,231.139C566.248,231.346 566.264,231.548 566.346,231.739C566.722,232.655 567.322,233.473 568.146,234.199C572.553,238.077 576.022,241.18 578.553,243.52C581.684,246.411 584.471,249.389 586.92,252.449C589.702,255.929 592.446,261.013 594.72,264.853C595.811,266.696 596.951,267.858 598.849,269.129C606.529,274.267 613.811,280.944 617.591,289.496C620.083,295.131 621.109,301.234 620.667,307.796C620.558,309.422 620.236,311.063 619.707,312.722C619.554,313.196 619.713,313.72 620.111,314.025L630.529,322.081C630.698,322.218 630.889,322.256 631.102,322.201C632.367,321.891 633.611,321.945 634.832,322.376C635.683,322.676 636.365,322.845 636.878,322.889C638.378,323.009 639.381,322.981 640.44,323.456C641.045,323.729 641.503,323.925 641.814,324.051C643.854,324.869 643.314,326.271 643.996,327.841C644.552,329.123 644.934,329.974 645.114,331.305C645.741,336.083 645.971,340.638 645.796,344.974C645.741,346.332 646.309,347.107 647.498,347.287C648.174,347.39 649.761,347.489 652.26,347.587C653.023,347.614 653.743,347.974 654.42,348.667C654.55,348.798 654.709,348.885 654.883,348.934C656.77,349.447 658.467,350.429 658.81,352.627C659.219,355.212 658.903,357.858 657.861,360.563C657.42,361.703 656.623,363.639 655.461,366.361C654.921,367.643 654.632,368.783 654.605,369.792C654.474,374.417 653.787,378.672 652.33,383.374C651.578,385.796 649.205,391.108 647.945,395.581C647.132,398.444 646.298,401.674 644.749,403.894C643.974,405.006 642.78,406.114 642.021,407.493C640.085,411.023 638.607,414.121 637.587,416.788C634.385,425.172 631.031,433.075 627.523,440.504C627.251,441.088 627.436,441.393 628.08,441.42C628.325,441.426 628.691,441.268 629.176,440.935C629.771,440.526 631.047,439.604 633.005,438.17C633.071,438.121 633.12,438.137 633.152,438.213L633.218,438.377C633.229,438.404 633.223,438.421 633.202,438.437C631.985,439.544 630.709,440.542 629.383,441.42C628.472,442.026 627.573,442.108 626.683,441.666C626.514,441.584 626.394,441.453 626.334,441.273C626.133,440.673 626.122,440.019 626.313,439.315C627.687,434.095 630.103,427.146 631.56,422.052C633.376,415.692 635.345,408.617 637.456,400.834C637.598,400.315 637.532,399.824 637.254,399.361C635.051,395.69 633.796,391.899 633.485,387.988C633.447,387.568 633.382,386.232 633.283,383.99C633.251,383.221 633.229,381.885 633.218,379.981C633.212,379.583 632.94,379.119 632.394,378.59C630.229,376.49 628.522,374.428 627.273,372.405C626.951,371.887 626.771,371.93 626.743,372.541C626.651,374.717 626.487,376.883 626.258,379.043C626.209,379.479 626.209,380.985 626.247,383.559C626.263,384.612 626.454,386.101 626.831,388.026C627.512,391.555 627.594,395.057 627.082,398.532C626.547,402.121 625.582,405.595 624.191,408.95C623.433,410.772 623.165,412.419 622.336,413.995C621.709,415.195 620.793,417.028 619.587,419.488C615.927,426.988 611.394,433.637 605.989,439.446C604.533,441.017 602.842,442.419 600.927,443.657C600.333,444.039 599.602,444.9 598.729,446.242C597.458,448.195 596.438,450.082 595.669,451.899C593.389,457.26 591.311,461.684 589.44,465.175C588.616,466.708 587.64,467.968 586.898,469.413C586.773,469.653 586.838,469.713 587.084,469.598C589.702,468.36 592.953,467.029 596.842,465.606C598.609,464.957 600.436,464.504 602.324,464.242C604.064,464.002 605.122,464.678 605.498,466.266C606.693,471.344 606.005,477.049 604.429,481.953C603.196,485.776 601.664,489.469 599.831,493.02C596.716,499.053 593.307,504.753 589.598,510.114C588.573,511.604 587.749,513.049 587.127,514.462C586.075,516.856 585.393,518.389 585.087,519.054C581.52,526.794 577.598,534.005 573.322,540.681C571.407,543.676 569.226,546.283 566.788,548.503C564.24,550.821 561.42,552.327 558.595,549.512C558.415,549.332 558.126,549.338 557.946,549.518C557.171,550.298 556.337,551.252 555.442,552.392C553.653,554.678 551.029,558.507 547.577,563.89C546.448,565.647 545.7,567.327 545.335,568.925C545.122,569.847 544.691,569.983 544.037,569.345L543.677,568.996C542.94,568.276 542.679,567.436 542.902,566.47C543.388,564.359 544.14,562.287 545.171,560.258C548.362,553.958 551.106,548.454 553.408,543.747C553.953,542.634 554.313,540.507 555.049,539.732C558.055,536.585 560.449,533.16 562.233,529.467C565.778,522.103 568.986,514.134 570.715,506.296C571.004,504.971 571.129,504.049 571.086,503.525C571.069,503.313 570.987,503.291 570.84,503.449C570.011,504.371 569.106,505.287 568.249,506.225C566.22,508.451 563.466,508.451 560.995,506.902C557.084,504.458 555.279,499.675 556.822,495.218C557.651,492.807 560.411,489.911 561.289,487.724C565.277,477.835 568.473,470.051 573.017,462.229C574.489,459.693 575.924,456.96 577.326,454.031C578.024,452.575 578.586,450.906 579.006,449.03C580.937,440.45 582.775,433.364 584.526,427.773C584.984,426.295 585.207,424.544 584.973,422.886C584.618,420.317 584.629,418.075 585.011,416.166C585.42,414.132 586.331,411.633 587.755,408.677C588.327,407.483 589.844,404.27 592.304,399.05C593.351,396.83 594.398,394.206 595.446,391.185C596.569,387.95 598.004,384.541 599.744,380.952C601.8,376.708 603.567,372.574 605.045,368.554C606.18,365.45 606.944,362.336 607.336,359.205C607.554,357.459 607.571,355.332 607.38,352.818C606.873,346.081 606.278,339.798 604.98,325.632C604.74,323.031 604.385,319.992 603.911,316.529C603.764,315.432 603.436,314.265 602.935,313.027C602.269,311.374 601.865,310.202 601.729,309.503C600.878,305.189 600.191,301.889 599.662,299.609C598.964,296.598 597.616,294.465 595.233,291.487C592.893,288.558 589.838,285.171 587.826,282.225C585.469,278.773 583.075,274.376 581.673,269.762C580.195,264.907 578.891,260.866 576.971,257.402C574.009,252.046 570.895,247.077 567.628,242.495C567.42,242.206 567.322,242.239 567.328,242.593C567.42,246.929 564.584,251.642 561.764,254.642C561.518,254.909 561.409,255.335 561.448,255.924C562.129,267.149 561.933,276.231 560.853,283.164C559.364,292.742 558.508,298.474 558.284,300.367C557.979,302.947 557.875,306.105 557.973,309.842C558.028,311.903 558.404,314.014 559.097,316.169C560.259,319.796 562.058,323.472 562.849,327.651C563.449,330.814 563.199,334.103 561.933,337.169C561.699,337.741 561.431,338.456 561.142,339.307C561.082,339.481 561.082,339.656 561.137,339.83C561.922,342.307 562.244,344.881 562.102,347.549C561.808,353.041 561.093,358.441 559.959,363.748C559.779,364.605 559.664,366.197 559.626,368.527C559.626,368.581 559.598,369.317 559.544,370.736C559.419,374.101 559.98,377.314 561.224,380.385C561.344,380.679 561.639,380.865 561.955,380.843C563.46,380.75 565.871,380.745 566.935,381.77C568.457,383.232 564.671,391.114 563.722,392.93C562.92,394.457 561.737,395.455 560.166,395.93C558.72,396.361 556.162,394.075 555.486,393.132C554.509,391.763 553.56,390.055 552.644,388.021C552.066,386.739 551.94,385.283 552.169,383.712C552.573,380.881 552.895,378.323 553.14,376.026C553.495,372.656 553.844,370.108 554.193,368.379C554.749,365.587 555.502,362.314 556.451,358.567C557.509,354.394 557.559,350.374 556.599,346.496C556.517,346.169 556.402,345.918 556.255,345.749C554.788,344.041 553.768,342.82 553.206,342.072C552.606,341.281 551.859,339.918 550.959,337.992C550.299,336.585 549.562,335.221 548.744,333.901C546.066,329.587 543.802,325.485 541.953,321.607C540.753,319.098 540.06,316.622 539.968,313.742C539.82,309.122 540.186,304.387 541.059,299.527C541.577,296.653 542.597,291.574 544.124,284.298C545.45,277.976 546.093,271.289 546.055,264.242C546.039,261.438 546.24,258.978 546.66,256.867C547.091,254.724 548.58,252.291 549.219,250.666C549.704,249.433 550.179,247.998 550.642,246.362C551.237,244.262 550.097,242.839 548.94,240.553C548.019,238.742 547.577,236.408 547.61,233.549C547.631,231.52 547.708,230.037 547.839,229.093C547.98,228.095 547.92,227.282 547.664,226.655C547.304,225.777 546.95,224.997 546.595,224.31C544.326,219.908 542.062,216.27 540.415,211.595C540.191,210.973 539.466,209.964 538.228,208.568C535.855,205.884 532.97,202.764 529.582,199.208C527.935,197.484 526.261,195.264 524.553,192.543C521.668,187.955 519.677,184.835 518.581,183.183C517.61,181.726 516.143,180.106 514.173,178.312C512.346,176.643 509.712,174.674 506.275,172.399C502.135,169.655 496.714,166.301 491.226,163.574C486.563,161.261 483.705,159.832 482.641,159.292C481.866,158.894 481.092,158.496 480.323,158.086C479.456,157.634 478.708,157.192 478.081,156.772C470.107,151.394 462.928,146.916 455.128,142.53C454.97,142.438 454.774,142.585 454.818,142.765C455.848,147.265 456.399,151.732 456.459,156.166C456.541,162.597 455.298,168.985 452.723,175.328C451.468,178.421 450.388,180.886 449.478,182.735C445.392,191.037 439.605,197.19 432.11,201.193C428.963,202.873 425.723,201.532 422.647,199.622C420.863,198.521 419.369,197.288 418.158,195.919C416.429,193.977 415.818,191.73 416.325,189.183C416.729,187.159 417.389,185.255 418.305,183.472C418.845,182.43 420.034,180.848 421.861,178.726C425.86,174.09 429.372,170.141 431.429,164.795C432.781,161.277 432.672,157.606 432.47,153.227C432.41,152.01 432.209,150.025 431.854,147.27C431.292,142.879 430.894,137.687 430.665,131.692C430.343,123.129 431.98,115.001 435.585,107.311C437.03,104.24 438.623,100.918 440.369,97.356C441.105,95.862 441.765,93.489 442.349,90.243C444.018,80.987 444.863,76.291 444.89,76.149C444.918,75.991 444.776,75.86 444.634,75.909C442.141,76.754 439.73,77.502 437.412,78.151C428.92,80.523 419.232,81.636 410.582,80.218C407.745,79.749 405.313,78.925 401.931,77.894C400.305,77.398 398.625,77.169 396.896,77.207C395.342,77.245 393.089,77.818 390.144,78.936C387.787,79.831 384.667,80.971 380.784,82.362C377.8,83.431 375.16,84.118 372.853,84.418C368.866,84.942 366.171,85.329 364.764,85.574C361.126,86.213 357.744,87.462 354.607,89.327C354.117,89.616 353.68,90.107 353.517,90.734C352.578,94.383 351.002,97.563 348.782,100.28C345.482,104.321 341.162,107.96 337.055,111.15C335.5,112.361 333.662,114.014 331.54,116.109C324.362,123.205 320.211,127.394 319.093,128.687C314.015,134.545 309.793,140.916 306.428,147.794C304.552,151.639 303.281,154.23 302.61,155.561C300.897,158.976 298.955,161.899 294.799,162.559C293.577,162.756 291.575,162.03 290.55,161.703C290.075,161.55 289.557,161.588 289.104,161.801C287.823,162.406 286.601,163.148 285.45,164.037C278.244,169.606 271.765,174.935 264.019,178.748C260.861,180.297 256.116,181.683 252.237,181.077C250.787,180.848 249.216,180.117 247.53,178.884C244.443,176.632 242.13,173.665 240.587,169.994C239.141,166.546 238.438,163.268 242.125,161.081C243.101,160.497 243.908,160.356 244.547,160.65C244.716,160.732 244.814,160.677 244.836,160.492C244.912,159.821 244.819,158.708 245.157,157.819C245.899,155.894 246.821,154.137 247.917,152.556C256.061,140.823 263.157,130.41 269.201,121.307C269.517,120.832 269.408,120.696 268.874,120.903C267.101,121.596 265.306,122.572 263.496,123.832C262.465,124.552 259.432,126.69 254.397,130.241C251.763,132.101 249.494,133.47 247.585,134.359C246.772,134.736 244.557,135.745 240.941,137.387C240.227,137.708 238.988,138.478 237.227,139.688C233.927,141.952 229.961,144.619 225.336,147.69C224.556,148.208 223.743,149.081 222.892,150.314C222.472,150.925 222.139,151.928 221.905,153.33C221.234,157.35 219.909,160.645 217.929,163.214C216.93,164.512 215.234,165.859 212.85,167.261C206.147,171.205 199.149,174.33 191.845,176.643C190.051,177.21 188.283,178.034 186.549,179.119C185.213,179.954 183.38,181.672 181.051,184.284C178.307,187.366 175.858,190.35 173.704,193.23C173.496,193.503 173.436,193.863 173.534,194.19C174.107,196.104 174.413,197.959 174.456,199.753C174.587,205.001 174.751,210.008 174.047,214.977C173.862,216.313 175.574,217.17 176.698,217.764C177.014,217.928 177.227,218.239 177.26,218.593C177.494,220.835 176.976,222.924 175.711,224.86C175.16,225.7 174.571,226.208 173.949,226.388C169.951,227.522 167.164,221.626 166.187,218.85C165.893,218.015 165.882,217.104 166.16,216.117C167.365,211.764 168.091,209.097 168.336,208.11C169.084,205.072 169.525,202.126 169.673,199.273C169.716,198.439 169.487,198.357 168.985,199.022C166.951,201.722 165.347,203.959 162.838,206.212C162.107,206.872 161.055,207.673 159.675,208.622C155.398,211.573 152.229,214.115 150.167,216.259C145.455,221.162 142.264,224.61 140.595,226.595C136.078,231.968 133.013,235.491 131.393,237.166C127.024,241.682 120.609,247.578 112.155,254.849C110.622,256.164 109.313,257.511 108.217,258.88C107.404,259.9 105.288,262.726 101.868,267.362C98.748,271.589 96.79,274.3 95.999,275.489C94.542,277.671 92.901,280.567 91.084,284.184C89.23,287.865 87.266,291.465 85.199,294.994C85.002,295.322 85.139,295.753 85.488,295.911C86.508,296.38 87.141,296.784 87.392,297.122C88.095,298.065 87.872,298.3 86.721,297.82C86.279,297.634 85.761,297.334 85.177,296.92C84.67,296.554 84.261,296.642 83.939,297.171C82.161,300.1 79.908,303.356 78.915,306.454C76.717,313.316 75.217,320.369 74.415,327.607C73.788,333.274 74.372,338.707 75.381,345.35C75.91,348.836 76.237,351.759 76.352,354.116C76.553,358.168 76.673,362.412 76.968,366.257C77.224,369.59 77.557,373.807 77.972,378.906C78.244,382.266 77.83,385.474 76.723,388.523C75.544,391.768 74.219,394.599 72.326,397.724C70.45,400.817 69.032,402.726 68.579,404.657C66.85,412.053 65.584,418.724 64.772,424.664C64.417,427.239 64.095,430.855 63.806,435.513C63.474,440.777 63.141,444.611 62.803,447.011C62.65,448.091 61.586,454.146 59.612,465.18C59.181,467.591 58.892,469.637 58.744,471.322C58.477,474.398 58.395,477.022 57.539,479.493C55.93,484.129 53.972,488.275 50.126,490.909C49.974,491.013 49.87,491.155 49.81,491.329C49.652,491.793 49.565,492.36 49.548,493.042C49.505,495.093 49.554,497.007 49.701,498.78C49.805,500.051 50.132,501.927 50.683,504.415C51.577,508.494 52.286,513.474 52.805,519.354C52.979,521.367 53.317,522.927 53.825,524.023C54.228,524.902 54.954,525.42 55.919,525.725C57.223,526.145 58.374,526.565 59.372,526.985C61.472,527.874 63.604,528.807 63.823,531.131C63.915,532.112 63.85,533.154 63.637,534.262C63.534,534.791 63.692,534.883 64.106,534.54C65.868,533.083 67.177,531.207 68.044,528.911C68.181,528.545 68.088,528.076 67.761,527.503C65.235,523.08 63.894,520.745 63.741,520.5C61.952,517.576 60.523,512.934 62.47,509.787C63.184,508.631 65.034,507.965 65.383,506.662C66.119,503.978 66.855,501.873 70.046,501.436C71.901,501.185 73.406,500.853 74.563,500.433C75.768,499.991 76.832,499.74 77.753,499.68C78.484,499.631 79.581,499.489 81.037,499.244C82.87,498.933 83.388,499.795 84.495,500.935C84.621,501.065 84.773,501.147 84.953,501.185C86.082,501.415 87.037,501.655 87.817,501.911C88.591,502.162 89.322,502.205 90.01,502.042C91.27,501.742 91.995,501.518 92.186,501.371C93.533,500.318 94.041,499.085 93.697,497.684C93.19,495.644 92.879,493.876 92.753,492.387C92.617,490.8 93.261,489.18 94.957,488.531C97.024,487.74 98.939,487.571 100.69,488.018C102.026,488.356 102.664,489.153 102.593,490.413C102.528,491.629 102.555,492.906 102.675,494.242C102.691,494.422 102.768,494.596 102.882,494.733C104.104,496.14 103.635,497.744 103.106,499.615C102.468,501.873 101.355,503.891 99.768,505.664C98.186,507.431 96.588,507.785 94.253,507.938C93.473,507.993 92.77,508.184 92.148,508.505C90.501,509.367 88.733,510.578 88.379,512.58C87.817,515.716 86.955,519.163 85.788,522.933C85.608,523.527 85.564,524.209 85.657,524.989C85.679,525.169 85.772,525.3 85.941,525.382C88.041,526.391 89.421,527.04 90.091,527.323C91.128,527.76 91.853,528.534 92.273,529.652C93.986,534.218 95.039,538.483 93.828,543.272C93.779,543.485 93.844,543.649 94.024,543.763C94.837,544.287 95.742,544.701 96.751,545.007C99.233,545.76 100.406,549.398 100.957,551.71C101.011,551.945 101.519,554.596 102.479,559.674C103.013,562.527 104.366,566.798 106.7,568.494C107.066,568.761 107.682,568.979 108.55,569.159C113.06,570.081 117.391,571.363 121.531,573.01C121.58,573.027 122.628,573.419 124.662,574.178C126.538,574.881 128.257,575.738 129.822,576.747C131.24,577.663 132.549,579.032 133.755,580.848C133.935,581.116 134.273,581.427 134.769,581.787C134.917,581.896 135.075,581.928 135.255,581.885C137.409,581.345 139.204,581.279 141.227,582.294C141.44,582.397 142.155,582.768 143.382,583.407C143.987,583.717 144.724,583.63 145.242,583.183C148.356,580.472 151.7,577.412 155.273,573.998C160.078,569.41 165.194,566.099 171.778,564.943C172.891,564.747 174.369,564.747 176.218,564.938C177.751,565.096 179.24,565.189 180.685,565.205C183.636,565.243 186.036,564.316 187.885,562.418C189.762,560.487 190.705,559.554 192.762,558.479C195.205,557.203 198.581,555.703 200.829,554.056C203.011,552.458 204.947,550.603 206.643,548.492C206.681,548.449 206.649,548.383 206.589,548.383C195.489,548.967 183.811,549.829 171.565,550.98C168.642,551.252 165.413,551.492 164.005,553.68C163.487,554.492 163.111,555.141 162.882,555.616C162.293,556.849 162.015,556.789 162.042,555.436C162.047,555.261 162.124,554.776 162.271,553.974C162.315,553.75 162.227,553.669 162.004,553.718C160.405,554.072 158.971,553.587 157.695,552.261C155.955,550.456 154.771,548.405 154.138,546.098C153.756,544.707 154.929,543.24 156.091,542.514C158.796,540.812 163.024,539.514 166.329,540.311C166.973,540.469 167.333,540.851 167.409,541.467C167.687,543.649 167.458,545.536 166.727,547.129C166.547,547.521 166.329,548.1 166.073,548.869C166.007,549.065 166.073,549.136 166.274,549.076C168.189,548.503 169.945,548.116 171.538,547.914C183.249,546.398 195.816,545.241 209.245,544.451C209.785,544.418 210.129,544.145 210.281,543.627C210.936,541.429 211.82,539.967 213.494,538.2C216.003,535.554 218.261,533.111 220.274,530.869C225.036,525.573 229.509,519.78 233.703,513.485C234.51,512.274 235.738,511.893 237.287,511.642C239.212,511.325 241.067,510.758 242.85,509.934C243.205,509.771 243.494,509.514 243.717,509.165C244.983,507.18 246.308,505.053 247.694,502.784C248.157,502.025 248.523,501.235 248.785,500.416C248.839,500.247 248.779,500.176 248.605,500.209ZM346.197,86.376C346.677,85.509 347.555,84.614 348.831,83.698C350.942,82.182 353.418,80.845 356.26,79.694C356.773,79.487 356.757,79.334 356.211,79.236C355.267,79.067 352.873,78.582 349.033,77.791C346.857,77.338 344.593,77.224 342.231,77.447C338.686,77.78 335.026,79.138 330.111,80.616C330.073,80.633 328.355,81.096 324.962,82.013C322.388,82.711 320.075,83.594 318.024,84.663C312.035,87.778 307.459,90.134 304.301,91.743C302.866,92.469 301.764,93.162 300.995,93.822C299.844,94.814 298.933,95.769 298.262,96.685C292.355,104.763 286.59,112.301 280.961,119.305C279.052,121.678 276.821,124.552 274.263,127.918C271.323,131.785 267.297,137.027 262.186,143.643C258.363,148.59 254.141,153.543 249.51,158.506C248.632,159.45 248.092,160.699 247.901,162.248C247.874,162.45 247.961,162.559 248.163,162.581C249.008,162.679 249.581,162.674 249.87,162.559C251.25,162.036 252.472,161.343 253.536,160.486C259.394,155.746 265.11,150.516 270.679,144.788C273.401,141.99 276.09,140.125 278.746,139.192C280.704,138.505 284.594,137.676 290.403,136.71C291.123,136.59 291.668,136.258 292.033,135.712C295.241,130.95 298.262,126.865 301.502,122.976C305.621,118.034 310.421,113.916 315.902,110.616C320.184,108.041 322.35,106.738 322.393,106.711C324.03,105.663 328.126,103.089 334.688,98.992C338.68,96.5 342.498,93.707 345.1,89.78C345.853,88.645 345.657,87.347 346.197,86.376ZM619.189,324.432L616.593,320.936C616.549,320.876 616.462,320.865 616.402,320.909L616.325,320.969C614.662,322.201 613.914,324.007 614.651,324.994L614.738,325.12C615.474,326.112 617.422,325.916 619.08,324.678L619.162,324.623C619.222,324.574 619.233,324.492 619.189,324.432ZM270.881,489.544C270.865,489.431 270.663,489.371 270.428,489.406C270.194,489.442 270.025,489.567 270.041,489.678C270.057,489.791 270.259,489.851 270.494,489.816C270.728,489.78 270.897,489.655 270.881,489.544ZM378.733,129.15C379.295,129.799 379.6,130.416 379.644,130.989C379.725,132.183 379.682,133.596 379.502,135.221C379.415,135.99 378.749,137.736 377.505,140.458C375.487,144.865 370.589,146.277 366.722,148.792C365.795,149.392 364.213,150.717 361.982,152.763C358.9,155.594 355.709,158.441 352.398,161.305C350.931,162.576 349.66,164.179 348.586,166.115C348.013,167.146 347.893,168.046 347.964,169.186C347.986,169.475 348.231,169.705 348.52,169.699C349.791,169.688 351.046,169.634 351.902,170.61C353.538,172.465 357.018,171.297 357.286,174.472C357.537,177.455 357.073,180.499 355.889,183.597C354.984,185.97 354.422,187.448 354.198,188.043C353.026,191.108 351.798,193.524 350.517,195.297C349.109,197.233 347.178,199.344 344.718,201.63C338.124,207.755 334.655,210.968 334.322,211.273C332.991,212.484 330.188,214.639 328.486,213.63C328.11,213.411 327.646,213.035 327.095,212.501C326.833,212.244 326.288,211.857 325.464,211.333C324.259,210.564 323.277,209.719 322.519,208.797C322.404,208.65 322.251,208.601 322.071,208.65C319.262,209.375 316.41,209.13 313.993,207.521C310.939,205.492 308.844,202.573 307.715,198.772C307.164,196.912 307.764,195.804 309.521,195.455C312.182,194.926 314.01,196.284 316.224,198.084C316.459,198.275 316.813,198.112 316.819,197.812C316.835,197.135 316.901,195.957 317.021,194.283C317.075,193.481 317.642,192.363 318.728,190.917C323.037,185.174 327.744,179.834 332.849,174.892C332.98,174.772 333.035,174.586 333.002,174.412C332.904,173.915 332.74,173.299 332.784,172.661C333.057,168.554 334.186,164.817 336.171,161.463C337.197,159.728 339.04,158.545 340.671,157.868C341.44,157.546 342.057,157.066 342.52,156.428C343.709,154.797 345.968,152.337 347.92,150.445C352.251,146.256 356.358,141.859 360.247,137.25C360.717,136.688 361.818,135.914 362.626,135.478C365.418,133.967 367.453,132.81 368.724,132.014C371.189,130.465 373.758,129.565 376.267,128.987C377.14,128.785 377.702,128.649 377.947,128.572C378.122,128.512 378.242,128.398 378.313,128.229C379.535,125.321 380.816,122.539 382.158,119.883C382.835,118.547 383.516,116.098 384.656,114.734C384.727,114.647 384.804,114.636 384.885,114.707C384.945,114.756 384.962,114.838 384.929,114.909L378.667,128.687C378.591,128.856 378.613,129.014 378.733,129.15ZM407.429,197.512C406.834,197.703 406.845,197.844 407.462,197.937C408.542,198.106 409.463,198.417 410.222,198.859C410.811,199.203 411.171,200.004 411.296,201.27C411.563,203.839 411.231,206.299 410.298,208.65C409.507,210.657 409.016,211.95 408.82,212.528C408.498,213.482 407.903,214.857 407.042,216.646C405.727,219.368 403.071,221.042 400.278,222.695C396.847,224.724 393.422,226.84 390.002,229.05C386.058,231.591 381.525,234.777 379.611,239.086C379.098,240.237 378.062,242.484 376.502,245.822C375.433,248.108 373.529,251.484 370.436,249.215C368.653,247.911 367.704,247.197 367.584,247.077C366.836,246.329 366.116,245.331 365.435,244.093C363.498,240.564 360.106,236.675 361.344,231.428C362.844,225.062 365.696,219.586 369.902,215.004C373.109,211.508 377.053,209.162 381.4,205.982C381.94,205.59 382.376,205.044 382.715,204.352C384.204,201.286 385.736,198.281 388.578,196.137C390.651,194.583 393.1,194.588 395.811,194.883C399.225,195.259 403.093,195.903 406.802,195.87C409.076,195.848 411.732,195.886 414.76,195.979C415.038,195.984 415.109,196.115 414.983,196.361L414.88,196.573C414.792,196.743 414.623,196.857 414.432,196.868C412.796,197.015 411.149,197.086 409.496,197.081C409,197.081 408.312,197.223 407.429,197.512ZM292.012,325.349C291.908,325.687 292.028,325.818 292.372,325.736C293.566,325.469 294.701,325.289 295.775,325.185C296.615,325.103 297.423,325.491 298.203,326.347C298.322,326.478 298.475,326.576 298.644,326.625C299.67,326.914 301.268,326.783 301.557,328.605C301.944,331.016 301.606,335.052 299.85,337.24C299.735,337.376 299.67,337.534 299.653,337.714C299.582,338.281 299.512,338.778 299.441,339.198C299.337,339.781 298.361,341.707 296.501,344.963C296.408,345.127 296.419,345.285 296.528,345.432C297.024,346.092 298.306,347.729 300.373,350.341C301.006,351.132 301.399,352.087 301.552,353.199C302.037,356.707 301.693,360.323 300.521,364.037C300.292,364.763 299.975,365.494 299.566,366.225C299.261,366.776 299.053,367.327 298.939,367.877C298.726,368.925 298.584,369.508 298.513,369.628C297.412,371.461 296.501,373.392 295.781,375.421C295.726,375.579 295.786,375.748 295.923,375.836C303.87,380.876 310.715,388.643 313.361,397.806C315.542,405.372 315.881,412.904 316.284,421.146C316.453,424.637 316.066,428.259 315.111,432.006C314.888,432.873 314.457,433.91 313.819,435.115C313.088,436.479 313.099,438.082 312.341,439.375C311.844,440.215 310.982,441.993 309.75,444.715C308.768,446.88 307.159,448.266 304.928,448.866C304.295,449.035 303.706,448.948 303.161,448.604C302.642,448.277 301.317,447.273 299.179,445.599C298.126,444.775 297.264,443.782 296.599,442.626C294.068,438.262 292.715,435.922 292.541,435.611C291.232,433.277 290.561,431.259 289.961,428.761C289.263,425.848 290.299,423.41 291.635,420.977C291.761,420.742 291.712,420.693 291.477,420.819C274.541,430.113 261.117,437.455 251.196,442.85C248.61,444.251 245.403,445.964 241.574,447.982C231.227,453.431 222.739,457.991 216.112,461.657C196.591,472.451 177.718,484.075 159.484,496.527C153.62,500.531 145.646,506.16 135.56,513.414C134.878,513.905 134.3,513.873 133.826,513.316L133.106,512.487C132.391,511.658 132.364,510.905 133.018,510.224C133.607,509.618 134.944,508.478 137.033,506.814C163.422,485.766 191.311,467.357 220.705,451.588C220.961,451.451 220.95,451.348 220.667,451.277C218.441,450.726 216.543,450.437 214.809,449.395C213.276,448.473 211.809,447.442 210.407,446.291C209.425,445.484 208.296,444.742 207.025,444.06C205.105,443.03 203.916,442.413 203.458,442.217C203.294,442.151 203.12,442.119 202.94,442.13C202.181,442.179 201.516,442.01 200.938,441.611C200.278,441.159 199.176,440.346 197.638,439.162C197.169,438.797 196.427,438.617 195.407,438.611C190.962,438.59 186.849,438.404 183.069,438.055C182.033,437.957 181.176,437.646 180.5,437.122C178.667,435.688 177.2,434.646 176.103,433.991C175.934,433.888 175.749,433.855 175.547,433.888L158.998,436.648C158.644,436.708 158.409,437.057 158.496,437.406C158.742,438.437 158.813,439.315 158.709,440.03C158.049,444.393 155.78,447.6 151.907,449.646C151.755,449.722 151.727,449.924 151.847,450.044C153.282,451.44 155.284,452.793 155.502,455.406C155.835,459.328 154.755,462.726 152.262,465.6C152.06,465.835 151.695,465.818 151.515,465.568C150.844,464.635 150.336,463.528 149.998,462.24C149.393,459.944 148.847,457.986 148.356,456.371C148.28,456.12 147.947,456.077 147.811,456.3C146.622,458.22 145.095,460.74 142.891,460.539C142.198,460.479 141.407,460.075 140.507,459.333C138.407,457.599 136.755,456.519 135.413,454.151C132.211,448.522 128.933,443.22 128.218,437.684C127.989,435.901 128.72,434.051 130.406,432.126C130.684,431.799 131.349,431.521 132.402,431.291C134.949,430.73 136.657,430.315 137.535,430.048C138.707,429.693 139.864,429.448 141.004,429.306C141.795,429.208 142.973,429.039 144.549,428.793C145.869,428.586 147.287,430.157 148.389,430.817C148.553,430.915 148.727,430.931 148.907,430.872C155.982,428.401 162.336,425.717 167.982,422.815C169.804,421.872 171.124,420.764 171.947,419.488C172.176,419.133 172.722,418.812 173.044,418.724C180.653,416.592 188.398,415.943 196.28,416.777C198.401,417.001 200.169,417.437 201.576,418.092C203.092,418.795 204.521,419.521 205.858,420.273C209.583,422.368 208.738,425.553 208.967,429.017C209.01,429.699 209.327,430.419 209.916,431.171C210.472,431.891 211.481,433.746 212.943,436.735C213.385,437.641 214.432,438.513 216.09,439.353C218.638,440.635 221.452,441.061 224.539,440.63C228.636,440.062 232.47,439.637 236.043,439.348C237.979,439.19 240.434,439.217 243.407,439.424C243.69,439.44 244.252,439.244 245.087,438.824C259.454,431.662 275.299,424.184 292.628,416.395C294.292,415.648 294.51,414.59 295.104,412.703C296.686,407.701 297.941,402.317 297.87,397.179C297.793,392.139 295.415,387.29 292.181,383.45C290.343,381.263 288.897,379.43 287.85,377.952C286.923,376.648 286.072,375.645 285.292,374.941C283.552,373.365 282.139,371.647 281.054,369.781C278.31,365.074 275.964,360.803 274.028,356.968C273.614,356.145 273.281,355.616 273.035,355.376C270.919,353.309 269.599,350.636 268.175,348.039C268.099,347.892 267.985,347.854 267.832,347.914C261.968,350.374 257.086,352.283 253.197,353.652C250.623,354.558 243.963,356.876 243.461,353.232C243.287,351.983 243.188,351.285 243.167,351.143C243.139,350.952 243.036,350.865 242.845,350.876C240.778,350.985 238.983,351.569 237.472,352.627C236.954,352.992 236.245,353.052 235.683,352.654C233.528,351.127 232.236,350.036 231.816,349.387C230.572,347.467 229.438,345.449 228.418,343.327C227.136,340.66 226.454,336.705 230.081,335.609C232.618,334.84 235.159,334.343 237.701,334.114C238.067,334.081 238.748,334.234 239.752,334.572C240.423,334.796 241.083,334.949 241.732,335.036C247.056,335.723 252.521,336.165 258.123,336.361C260.992,336.46 265.672,336.765 269.594,336.601C269.926,336.59 270.117,336.225 269.948,335.941C268.765,333.983 268.05,332.745 267.815,332.238C267.226,330.978 266.779,329.516 266.474,327.847C266.266,326.723 266.381,325.234 266.812,323.374C269.054,313.752 270.395,303.94 270.428,294.384C270.434,292.393 270.09,290.325 269.397,288.171C268.895,286.605 267.875,284.811 266.332,282.776C262.252,277.404 256.606,271.186 253.617,267.787C249.608,263.227 245.867,257.98 242.387,252.046C238.001,244.562 234.696,235.96 234.516,227.315C234.401,221.92 235.05,216.51 236.463,211.077C237.019,208.928 237.838,206.124 239.932,205.301C241.356,204.744 242.528,205.153 243.456,206.522C243.657,206.817 244.585,208.202 246.237,210.684C246.897,211.666 247.197,212.779 247.148,214.028C247.132,214.47 246.614,214.699 246.27,214.421C244.759,213.188 243.363,211.622 242.081,209.73C241.917,209.495 241.814,209.517 241.77,209.801C241.105,214.311 240.892,218.724 241.138,223.05C241.661,232.3 246.292,241.191 252.445,248.238C257.986,254.587 263.637,259.147 270.881,264.957C274.868,268.153 278.675,271.687 282.303,275.56C285.134,278.576 287.304,281.391 288.804,283.993C294.063,293.124 296.081,304.496 294.548,314.887C294.106,317.903 293.261,321.389 292.012,325.349ZM248.603,350.472C248.594,350.363 248.136,350.298 247.578,350.331C247.017,350.363 246.57,350.483 246.577,350.592C246.587,350.701 247.045,350.767 247.602,350.734C248.163,350.701 248.61,350.581 248.603,350.472ZM215.24,266.2C215.289,266.533 215.349,266.833 215.201,267.176C213.75,270.526 212.594,273.902 209.736,274.906C209.169,275.107 208.629,275.009 208.111,274.611C205.754,272.816 203.501,271.278 202.498,269.527C200.583,266.206 199.329,263.964 198.74,262.802C197.174,259.737 196.318,257.375 196.165,255.717C195.898,252.76 195.696,250.289 195.56,248.304C195.532,247.933 195.32,247.328 194.922,246.482C194.66,245.931 194.305,245.418 193.863,244.933C191.202,242.037 188.174,239.642 184.787,237.755C181.389,235.862 178.82,234.406 177.069,233.391C175.645,232.562 172.885,230.135 174.342,228.488C174.538,228.27 174.811,228.144 175.1,228.128C176.883,228.03 178.416,228.673 180.009,229.088C187.252,230.97 193.989,233.146 200.452,236.713C203.949,238.644 206.927,241.191 209.387,244.355C209.943,245.069 211.154,247 213.02,250.148C213.827,251.506 214.896,252.809 216.232,254.053C216.969,254.74 217.421,255.346 217.58,255.875C217.694,256.257 217.738,256.993 217.7,258.089C217.601,261.067 216.701,263.184 215.332,265.687C215.24,265.846 215.212,266.02 215.24,266.2ZM108.037,298.185C107.933,298.033 107.704,298.049 107.622,298.213L104.404,304.518C104.186,304.949 103.657,305.118 103.226,304.9C101.295,303.923 100.7,301.502 100.951,299.276C101.442,294.994 102.724,290.593 104.791,286.082C105.702,284.102 107.257,282.935 109.455,282.569C111.391,282.253 112.739,282.073 113.486,282.029C113.666,282.024 113.802,281.947 113.9,281.8C115.509,279.449 117.026,277.125 118.439,274.818C119.011,273.886 119.437,272.364 119.715,270.258C119.846,269.282 120.282,268.48 121.024,267.853C122.033,267.002 123.571,266.707 124.629,266.435C129.478,265.207 133.804,263.664 137.617,261.804C139.117,261.067 140.644,260.14 142.198,259.022C143.006,258.438 143.311,257.997 143.382,256.927C143.671,252.673 144.887,248.724 147.042,245.086C148.231,243.073 150.146,239.74 151.935,238.224C152.66,237.608 153.435,237.602 154.269,238.208C157.225,240.357 159.331,243.024 160.585,246.215C161.251,247.917 161.409,250.044 161.611,252.209C161.682,253 161.84,253.797 162.08,254.593C163.105,257.964 163.389,260.642 162.636,264.084C161.78,267.967 160.242,272.058 158.022,276.356C156.522,279.264 154.302,281.844 151.367,284.091C146.742,287.631 141.277,290.478 135.326,291.694C133.662,292.033 132.364,291.804 131.442,291.002C130.389,290.085 129.271,289.202 128.098,288.345C127.286,287.762 126.997,287.953 127.242,288.924C127.798,291.165 127.826,293.091 127.226,295.322C126.244,298.96 122.006,312.242 115.766,308.009C114.364,307.06 113.18,306.067 112.204,305.036C110.551,303.285 109.515,300.356 108.037,298.185ZM417.994,284.396C418.431,284.696 418.861,284.925 419.292,285.084C423.88,286.758 427.72,288.487 430.818,290.265C435.258,292.807 438.972,295.011 439.185,300.367C439.321,303.874 438.972,306.962 438.127,309.64C436.981,313.278 435.41,316.976 433.414,320.745C432.427,322.605 430.981,323.647 429.072,323.881C428.892,323.903 428.723,323.871 428.57,323.778C427.496,323.14 426.312,322.321 425.014,321.323C423.083,319.829 422.107,317.14 420.967,315.482C420.372,314.614 419.505,313.671 418.371,312.651C415.294,309.891 412.703,306.525 410.603,302.56C409.294,300.083 407.396,296.985 406.354,293.734C403.202,283.884 398.342,274.464 392.347,266.582C391.753,265.802 391.529,264.951 391.676,264.018C391.704,263.822 391.807,263.68 391.987,263.598C395.325,262 397.567,263.326 400.333,265.611C401.963,266.958 403.469,268.436 404.86,270.046C408.651,274.447 412.496,278.762 416.396,283C416.881,283.524 417.411,283.987 417.994,284.396ZM626.4,267.133C626.983,267.575 627.643,267.88 628.38,268.049C632.111,268.922 634.363,269.478 635.138,269.713C638.814,270.826 641.803,272.484 644.105,274.687C645.72,276.231 647.541,278.456 649.576,281.369C653.023,286.3 655.92,290.32 659.901,294.842C663.916,299.407 667.679,304.387 671.187,309.776C671.825,310.752 673.205,312.154 675.327,313.976C676.183,314.707 676.696,315.858 676.876,317.429C677.312,321.214 676.668,323.832 675.463,328.463C675.283,329.156 675.043,329.718 674.743,330.149C674.503,330.487 674.11,330.956 673.565,331.55C673.15,332.003 673.058,332.658 673.336,333.176C673.598,333.656 673.559,334.081 673.259,334.561C672.392,335.952 671.541,337.616 670.712,339.547C669.512,342.34 668.754,343.621 666.294,345.089C665.934,345.301 665.776,345.743 665.918,346.136C666.272,347.112 666.812,348.203 667.549,349.409C667.718,349.687 669.534,352.589 673.008,358.125C673.93,359.598 674.928,361.545 676.003,363.967C679.39,371.597 681.523,376.626 682.39,379.054C683.192,381.29 683.552,384.426 683.47,388.457C683.41,391.452 683.296,394.446 683.116,397.441C682.832,402.235 684.387,407.008 683.967,411.612C683.868,412.648 683.547,413.848 683.007,415.217C681.85,418.113 680.999,419.957 680.448,420.742C679.668,421.866 678.545,422.09 677.078,421.408C675.561,420.71 674.187,419.417 672.959,417.53C671.329,415.032 670.085,412.692 669.229,410.51C667.658,406.517 667.903,401.248 668.781,396.983C669.049,395.679 669.736,392.805 670.843,388.354C671.525,385.626 671.634,382.343 671.176,378.497C670.51,372.961 669.638,367.196 667.958,361.872C666.861,358.398 664.641,353.93 663.49,350.87C663.01,349.589 662.536,347.941 662.072,345.918C662.029,345.732 661.92,345.596 661.75,345.503C660.698,344.952 659.629,344.167 658.554,343.147C657.239,341.898 655.92,341.178 654.174,340.005C653.209,339.356 652.287,338.281 651.414,336.792C651.19,336.41 649.227,332.87 645.529,326.172C643.843,323.123 642.807,320.167 642.414,317.303C641.727,312.312 641.46,309.956 640.036,306.116C638.558,302.118 637.522,299.271 636.938,297.564C635.651,293.811 634.271,288.444 632.798,281.462C632.607,280.556 632.083,279.678 631.238,278.822C627.823,275.369 625.843,273.356 625.298,272.789C624.283,271.726 622.08,268.873 622.549,267.286C623.263,264.864 626.667,263.713 628.925,263.522C629.312,263.489 629.602,263.882 629.449,264.237C629.318,264.542 629.122,264.787 628.854,264.978C627.578,265.878 626.76,266.484 626.394,266.784C626.253,266.904 626.253,267.018 626.4,267.133ZM364.431,327.061C363.782,326.74 362.996,326.38 362.069,325.992C358.42,324.454 355.447,321.94 352.431,319.66C350.44,318.149 348.646,316.436 347.058,314.516C346.006,313.24 344.713,311.222 343.191,308.467C340.677,303.902 338.926,300.602 337.949,298.573C336.46,295.469 335.506,292.082 335.097,288.411C334.633,284.32 334.491,280.845 336.477,277.545C337.944,275.107 341.604,275.571 343.988,274.687C344.435,274.524 345.269,274.126 345.886,274.049C347.484,273.847 349.011,273.624 350.457,273.378C351.738,273.16 352.758,274.415 353.429,275.233C353.517,275.347 353.675,275.418 353.904,275.451C354.537,275.538 355.775,275.5 356.473,276.013C357.389,276.684 357.973,277.447 358.218,278.304C359.418,282.487 361.169,286.9 364.213,289.894C365.02,290.691 365.816,291.094 367.016,291.302C371.631,292.087 375.727,292.791 379.715,295.065C381.356,296.004 382.551,296.511 384.509,297.411C388.496,299.244 391.584,302.063 393.776,305.865C394.185,306.569 394.431,307.78 394.524,309.498C394.725,313.332 394.294,317.047 393.231,320.647C392.854,321.929 392.44,322.916 391.987,323.62C391.556,324.285 391.251,325.114 391.065,326.101C390.831,327.351 390.264,328.627 389.364,329.931C388.464,331.234 389.178,333.492 389.8,334.883C390.214,335.821 390.269,336.569 390.4,337.49C390.411,337.55 390.574,340.409 390.891,346.076C391.033,348.689 390.105,351.885 390.04,354.023C389.964,356.57 390.427,359.03 391.436,361.392C394.573,368.739 397.382,375.405 398.549,382.621C399.896,390.934 398.429,399.819 396.4,407.81C394.851,413.908 393.656,418.228 393.171,422.526C393.056,423.552 393.029,424.653 393.1,425.832C393.302,429.355 393.334,431.902 393.204,433.468C392.871,437.51 391.911,441.748 390.313,446.193C388.12,452.297 385.785,458.411 383.309,464.537C382.273,467.1 380.44,471.453 377.173,469.195C375.978,468.366 375.144,467.58 374.675,466.838C373.311,464.684 372.307,462.862 371.664,461.373C370.518,458.722 371.266,457.037 372.296,453.868C373.431,450.382 374.598,446.995 375.798,443.7C377.625,438.688 378.825,432.797 379.398,426.017C379.66,422.968 380.456,419.662 381.793,416.112C383.145,412.506 384.88,407.608 386.991,401.412C387.771,399.126 388.458,396.268 389.053,392.848C390.302,385.632 388.469,378.17 385.344,371.625C383.647,368.068 382.458,365.559 381.776,364.097C380.162,360.623 379.011,356.843 378.329,352.758C378.193,351.945 377.816,351.181 377.2,350.467C374.587,347.45 373.06,345.563 372.613,344.794C371.658,343.158 370.518,341.14 369.182,338.745C367.595,335.903 366.569,333.65 366.106,331.992C365.615,330.247 365.156,328.72 364.726,327.405C364.676,327.247 364.578,327.132 364.431,327.061ZM137.649,336.956C137.507,337.005 137.458,337.185 137.557,337.3C137.998,337.807 138.271,338.407 138.375,339.1C139.275,345.067 139.307,351.176 138.467,357.421C138.146,359.783 137.529,361.638 136.607,362.985C136.111,363.721 135.86,364.272 135.855,364.638C135.849,365.488 135.653,366.372 135.326,367.087C134.655,368.532 133.766,370.354 132.664,372.541C131.998,373.856 131.371,374.761 130.788,375.246C129.724,376.136 127.346,377.336 126.08,376.223C125.104,375.361 123.893,374.407 122.437,373.365C120.664,372.088 119.551,370.834 118.389,368.767C117.904,367.91 116.906,366.116 115.389,363.394C114.086,361.054 113.224,359.199 112.804,357.836C111.828,354.688 111.315,351.939 111.255,349.589C111.206,347.592 111.68,345.492 112.673,343.294C113.813,340.763 114.129,338.843 116.448,336.929C117.108,336.383 117.648,335.647 118.073,334.72C118.149,334.556 118.269,334.436 118.428,334.354C120.299,333.405 121.646,333.738 122.464,335.358C122.584,335.598 122.9,335.658 123.097,335.478C123.828,334.812 123.942,334.081 124.248,333.247C125.071,331.016 125.448,328.78 125.377,326.532C125.349,325.736 125.431,325.229 125.617,325.016C125.938,324.64 126.424,324.372 127.073,324.203C128.289,323.887 129.408,323.652 130.428,323.5C131.786,323.292 132.849,322.965 133.618,322.523C134.878,321.792 136.166,320.865 137.469,319.742C138.697,318.683 139.482,317.958 139.815,317.571C139.929,317.44 140,317.276 140.022,317.102C140.235,315.296 140.731,313.976 141.517,313.147C143.6,310.943 146.295,308.276 149.6,305.151C152.349,302.554 155.485,300.471 159.255,299.244C162.364,298.229 165.685,297.602 169.225,297.367C170.502,297.285 171.598,297.46 172.514,297.902C172.684,297.984 172.793,298.114 172.831,298.3C173.011,299.085 172.956,299.876 172.673,300.678C171.5,303.973 169.749,307.087 167.42,310.016C166.558,311.102 165.462,312.089 164.131,312.967C159.533,316.005 156.227,318.302 154.215,319.845C152.976,320.8 152.289,321.503 151.667,323.025C150.707,325.381 149.638,328.458 147.636,330.443C144.533,333.514 141.206,335.685 137.649,336.956ZM437.047,334.032C437.767,335.03 438.683,335.532 439.916,336.263C440.02,336.323 440.09,336.432 440.112,336.552C440.369,337.916 440.265,339.312 439.79,340.741C439.201,342.519 438.143,345.972 435.7,345.383C432.35,344.576 430.567,341.483 429.165,338.63C428.892,338.069 427.627,335.02 425.374,329.483C424.48,327.296 424.889,325.911 427.376,325.681C429.323,325.501 430.889,326.129 432.078,327.558C433.643,329.44 435.296,331.594 437.047,334.032ZM170.447,376.839C169.749,376.943 167.764,377.543 164.496,378.645C162.211,379.419 160.716,379.637 159.636,377.199C158.835,375.377 159.135,373.823 160.542,372.53C164.305,369.067 168.98,366.977 173.965,365.576C175.416,365.167 176.883,364.648 178.367,364.021C183.2,361.965 189.843,359.93 195.003,361.85C196.771,362.505 198.369,363.356 199.803,364.408C200.932,365.237 200.676,367.479 200.261,368.805C199.547,371.09 198.881,372.912 198.265,374.281C197.354,376.294 195.854,377.112 193.765,376.73C191.512,376.316 189.969,376.108 189.14,376.114C188.131,376.119 186.303,376.316 183.647,376.692C182.273,376.888 180.134,376.828 177.238,376.506C175.498,376.316 173.234,376.43 170.447,376.839ZM266.093,443.692C266.152,443.82 266.092,443.973 265.961,444.03L257.284,447.821C257.152,447.879 257.005,447.819 256.946,447.689L256.938,447.669C256.879,447.54 256.939,447.388 257.07,447.331L265.747,443.54C265.879,443.482 266.026,443.542 266.085,443.672L266.093,443.692ZM148.842,524.133C149.136,526.62 148.607,528.894 147.255,530.962C146.333,532.363 145.553,533.242 144.904,533.607C141.691,535.412 138.26,536.509 134.622,536.901C132.271,537.158 130.389,536.416 128.988,534.676C127.815,533.231 127.018,531.769 126.588,530.291C126.397,529.636 126.751,528.954 127.389,528.725C131.72,527.187 135.271,525.894 138.047,524.847C141.086,523.702 145.809,522.3 148.575,523.745C148.722,523.822 148.82,523.969 148.842,524.133ZM119.742,530.176C120.38,530.4 120.806,530.591 121.018,530.749C121.957,531.425 121.733,533.672 121.553,534.949C121.477,535.494 121.204,536.28 120.735,537.305C119.84,539.263 119.42,541.401 117.964,543.414C115.919,546.24 112.782,542.934 111.604,541.069C109.668,538.003 108.375,535.969 108.446,532.865C108.49,531.092 109.406,530.612 111.059,530.176C113.317,529.576 116.677,528.627 118.515,529.598C119.071,529.887 119.48,530.083 119.742,530.176ZM180.243,533.863C180.898,533.825 181.083,534.098 180.8,534.687C179.758,536.863 178.296,538.385 176.414,539.258C175.514,539.672 174.882,539.421 174.516,538.505L174.102,537.474C173.714,536.514 173.965,535.772 174.854,535.243C176.158,534.463 177.958,534.005 180.243,533.863ZM130.602,553.33C131.377,552.905 133.231,551.88 136.16,550.249C138.511,548.945 141.167,548.203 144.135,548.029C145.613,547.941 146.616,548.563 147.151,549.894C147.353,550.39 147.233,551.383 146.802,552.861C146.311,554.552 145.749,556.08 145.111,557.443C143.469,560.983 139.897,561.796 136.258,562.789C134.289,563.329 132.735,563.503 131.606,563.323C128.458,562.816 126.069,561.321 124.438,558.85C123.588,557.563 123.549,556.554 124.318,555.818C125.317,554.869 127.318,554.596 128.638,554.187C129.255,553.996 129.909,553.707 130.602,553.33ZM149.196,602.568C153.724,610.674 159.364,617.972 166.122,624.463C171.451,629.584 177.156,634.548 183.271,638.857C184.962,640.052 187.171,641.333 189.903,642.713C193.007,644.29 195.549,645.512 197.518,646.379C200.441,647.671 202.563,648.468 205.498,647.824C208.689,647.121 210.587,646.679 211.192,646.499C212.087,646.226 212.949,645.871 213.772,645.43C215.316,644.606 217.825,643.03 221.289,640.69C223.214,639.397 224.376,638.513 225.352,636.484C226.198,634.728 227.152,632.901 228.216,630.997C229.541,628.635 231.036,626.601 232.699,624.893C233.796,623.764 234.707,622.657 235.432,621.561C236.888,619.368 237.685,618.163 237.827,617.95C242.19,611.383 247.274,605.334 253.083,599.808C255.346,597.654 258.057,596.268 261.205,595.657C263.845,595.145 265.879,594.812 267.303,594.665C268.895,594.501 270.417,594.19 271.868,593.726C275.135,592.69 278.468,591.954 281.866,591.512C283.955,591.239 285.363,591.272 286.077,591.616C286.224,591.686 287.195,592.128 288.979,592.947C289.792,593.317 290.206,594.07 290.223,595.21C290.266,598.101 289.372,599.983 288.215,603.043C287.424,605.121 286.546,606.735 285.575,607.886C284.91,608.672 283.846,609.425 282.384,610.15C279.963,611.345 277.639,612.337 275.414,613.123C273.297,613.865 270.755,614.47 268.699,613.554C268.552,613.488 267.537,613.057 265.666,612.255C265.11,612.021 264.434,612.114 263.643,612.544C261.886,613.488 260.01,614.754 258.019,616.335C255.226,618.544 252.505,620.917 249.848,623.443C246.057,627.048 243.39,629.513 241.836,630.828C241.394,631.199 240.816,631.564 240.096,631.919C239.038,632.442 237.456,632.23 236.288,632.273C236.098,632.279 235.939,632.355 235.819,632.508C234.439,634.226 233.381,635.748 232.645,637.079C232.323,637.657 232.028,638.71 231.75,640.242C231.068,644.006 229.263,647.202 226.339,649.837C223.836,652.084 221.654,653.966 219.783,655.477C216.652,658.008 214.705,660.102 211.132,663.533C209.049,665.535 206.692,666.822 204.058,667.406C202.389,667.771 200.643,667.717 198.821,667.237C197.163,666.795 195.505,666.119 193.842,665.202C186.538,661.171 180.363,656.033 175.318,649.793C175.176,649.619 171.064,644.508 162.98,634.455C155.033,624.566 148.28,613.843 144.146,601.892C143.911,601.21 143.878,600.49 144.047,599.743C144.091,599.552 144.2,599.41 144.369,599.317C144.773,599.088 145.302,598.979 145.956,598.996C146.366,599.001 146.829,599.301 147.342,599.885C147.98,600.616 148.52,601.603 149.616,601.93C149.72,601.963 149.786,602.006 149.813,602.066C149.835,602.105 149.846,602.154 149.84,602.208C149.835,602.312 149.775,602.366 149.671,602.366C149.584,602.366 149.496,602.35 149.404,602.323C149.115,602.225 149.049,602.306 149.196,602.568Z" style="fill:rgb(58,59,66);"/>
    </g>
</svg>
