<?xml version="1.0" encoding="UTF-8"?>
<svg width="125px" height="25px" viewBox="0 0 125 25" version="1.1" xmlns="http://www.w3.org/2000/svg" xmlns:xlink="http://www.w3.org/1999/xlink">
    <!-- Generator: Sketch 51.2 (57519) - http://www.bohemiancoding.com/sketch -->
    <title>Combined Shape</title>
    <desc>Created with Sketch.</desc>
    <defs>
	 	<style>
		:root { --color: #00FF00; }
		@media (prefers-color-scheme: light) { :root { --color: #000000; } }
		@media (prefers-color-scheme: dark) { :root { --color: #BBBBBB; } }
		path {
			fill: var(--color);
			stroke: none;
		}
	 	</style>
	</defs>
    <g id="Symbols" stroke="none" stroke-width="1" fill="none" fill-rule="evenodd">
        <g id="Now_Playing" transform="translate(-22.000000, -26.000000)" fill="#FFFFFF">
            <path d="M60.053437,32.4292135 L60.053437,30.9389088 C60.0549895,30.7120728 60.2257685,30.5611068 60.4322558,30.561881 L67.1298967,30.5611068 C67.3437585,30.5611068 67.5157019,30.7163308 67.5157019,30.9369733 L67.5157019,32.2151516 C67.5137612,32.4296006 67.3328908,32.7090812 67.0119039,33.153463 L63.5423738,38.0931459 C64.8302025,38.0633398 66.192553,38.2557246 67.3623889,38.9118458 C67.6263201,39.0593279 67.6969605,39.2784221 67.7179197,39.4932582 L67.7179197,41.0834328 C67.7179197,41.3025269 67.4772766,41.5560723 67.2242132,41.4240739 C65.1632215,40.3471835 62.4276528,40.2295075 60.1477535,41.437235 C59.9152612,41.5611045 59.6715131,41.311043 59.6715131,41.0915617 L59.6715131,39.5799669 C59.6715131,39.3380343 59.6761707,38.9246198 59.9206951,38.555721 L63.9402112,32.80508 L60.4404066,32.8046929 C60.2265447,32.8046929 60.0549895,32.6525657 60.053437,32.4292135 Z M35.6231165,41.7372314 L33.5854128,41.7372314 C33.3917339,41.7248445 33.2368684,41.5796849 33.2209549,41.3938807 L33.2225075,30.9644568 C33.2225075,30.7558142 33.3983322,30.5889775 33.6156872,30.5889775 L35.5132745,30.5885904 C35.7119992,30.5986548 35.8711341,30.7484594 35.8835544,30.9389088 L35.8835544,32.3003119 L35.9219797,32.3003119 C36.4164624,30.9838114 37.3483722,30.3691091 38.6035977,30.3691091 C39.8774536,30.3691091 40.6766216,30.9838114 41.2471786,32.3003119 C41.7420495,30.9838114 42.864145,30.3691091 44.0623148,30.3691091 C44.9181503,30.3691091 45.8500601,30.7202017 46.4206171,31.5102568 C47.0672484,32.3881818 46.9345066,33.6609408 46.9345066,34.7804113 L46.9325659,41.3621391 C46.9325659,41.5700076 46.7567412,41.7372314 46.5393862,41.7372314 L44.5043994,41.7372314 C44.2998528,41.7244574 44.1391653,41.5630399 44.1391653,41.3629133 L44.138389,35.833689 C44.138389,35.3955007 44.1764262,34.2977074 44.0809452,33.8808091 C43.9287966,33.1782369 43.472351,32.9804328 42.8831636,32.9804328 C42.3882927,32.9804328 41.8747913,33.3098482 41.6655871,33.8362935 C41.4563829,34.363513 41.4754014,35.2410509 41.4754014,35.833689 L41.4754014,41.3621391 C41.4754014,41.5700076 41.2995767,41.7372314 41.0826098,41.7372314 L39.0472349,41.7372314 C38.8426883,41.7244574 38.6816126,41.5630399 38.6816126,41.3629133 L38.6792838,35.833689 C38.6792838,34.6704771 38.8694695,32.9591427 37.4244465,32.9591427 C35.9596287,32.9591427 36.0166844,34.6267357 36.0166844,35.833689 L36.0162962,41.3621391 C36.0162962,41.5700076 35.8400834,41.7372314 35.6231165,41.7372314 Z M73.2818211,30.3691091 C76.3057734,30.3691091 77.940982,32.9591427 77.940982,36.2509744 C77.940982,39.4328718 76.1346062,41.9570998 73.2818211,41.9570998 C70.3145364,41.9570998 68.69757,39.3666791 68.69757,36.1410402 C68.69757,32.8929499 70.3331668,30.3691091 73.2818211,30.3691091 Z M73.3000634,32.4981159 C71.7975966,32.4981159 71.7028918,34.5384787 71.7028918,35.8120119 C71.7028918,37.0847708 71.6838733,39.8060287 73.2818211,39.8060287 C74.8603622,39.8060287 74.9360483,37.6112162 74.9360483,36.2730386 C74.9360483,35.3955007 74.8980112,34.3418359 74.6317513,33.5076523 C74.4035285,32.7830158 73.9466947,32.4981159 73.3000634,32.4981159 Z M81.8630765,41.7372314 L79.8331355,41.7372314 C79.628977,41.7244574 79.4675132,41.5630399 79.4675132,41.3629133 L79.46402,30.9296185 C79.481486,30.738395 79.6503243,30.5889775 79.8556472,30.5889775 L81.7454718,30.5885904 C81.9236254,30.5978806 82.07034,30.7186533 82.1076009,30.8804578 L82.1076009,32.4760517 L82.1460262,32.4760517 C82.7165832,31.0488429 83.5149749,30.3691091 84.922737,30.3691091 C85.8356283,30.3691091 86.729501,30.6981374 87.300058,31.5981267 C87.8325779,32.4319232 87.8325779,33.8362935 87.8325779,34.8462169 L87.8325779,41.4089773 C87.8100661,41.5936202 87.6435566,41.7372314 87.4421151,41.7372314 L85.3997538,41.7372314 C85.2111206,41.7252316 85.0589721,41.5870397 85.0368484,41.4089773 L85.0368484,35.7465933 C85.0368484,34.6050585 85.1703666,32.9366914 83.7629925,32.9366914 C83.2681217,32.9366914 82.811676,33.2661068 82.5834532,33.7704878 C82.2981747,34.4072544 82.2597494,35.0436339 82.2597494,35.7465933 L82.2597494,41.3621391 C82.2562562,41.5700076 82.0804315,41.7372314 81.8630765,41.7372314 Z M56.7686586,41.7112962 C56.6339761,41.832069 56.4391328,41.8401979 56.2873724,41.7585215 C55.6104667,41.197625 55.4893688,40.9386603 55.119089,40.4044731 C54.0008748,41.5405886 53.2086933,41.8816168 51.7597889,41.8816168 C50.0446246,41.8816168 48.7102198,40.8256294 48.7102198,38.7144288 C48.7102198,37.0650291 49.6064213,35.9432361 50.8833823,35.3931781 C51.9883999,34.909313 53.5327852,34.821443 54.7146533,34.6890575 L54.7146533,34.4250607 C54.7146533,33.9411955 54.7526905,33.3698475 54.4666357,32.9517879 C54.218618,32.5778569 53.7423776,32.4237943 53.3231928,32.4237943 C52.5457603,32.4237943 51.8552699,32.8205637 51.6852672,33.6439087 C51.649947,33.8270033 51.5160407,34.0085495 51.3312889,34.0178397 L49.356463,33.8041649 C49.1895653,33.7666169 49.0044254,33.6334572 49.0521659,33.3791377 C49.5066708,30.9900049 51.67013,30.2680781 53.6088595,30.2680781 C54.6001538,30.2680781 55.8961333,30.5316878 56.6774471,31.2799369 C57.6691296,32.2035388 57.5736486,33.4356531 57.5736486,34.7777016 L57.5736486,37.9429541 C57.5736486,38.8955879 57.9703216,39.3132604 58.3425421,39.8261575 C58.4729552,40.0115746 58.5016771,40.2310559 58.3359439,40.366151 C57.9198642,40.7141469 57.1804688,41.3547844 56.7733162,41.7159413 L56.7686586,41.7112962 Z M54.7146533,36.7569038 L54.7146533,36.3171671 C53.2405203,36.3171671 51.6841028,36.6314859 51.6841028,38.3621749 C51.6841028,39.2420354 52.1413247,39.8362219 52.9226385,39.8362219 C53.4943599,39.8362219 54.0090256,39.483968 54.3331176,38.91262 C54.7336719,38.2081123 54.7146533,37.5488943 54.7146533,36.7569038 Z M30.0580507,41.7112962 C29.9237563,41.832069 29.7285249,41.8401979 29.5767645,41.7585215 C28.8998587,41.197625 28.7783728,40.9386603 28.4088692,40.4044731 C27.2902669,41.5405886 26.4980853,41.8816168 25.0495691,41.8816168 C23.3344048,41.8816168 22,40.8256294 22,38.7144288 C22,37.0650291 22.8954252,35.9432361 24.1727743,35.3931781 C25.2781801,34.909313 26.8225654,34.821443 28.0036572,34.6890575 L28.0036572,34.4250607 C28.0036572,33.9411955 28.0420825,33.3698475 27.7564159,32.9517879 C27.5083982,32.5778569 27.0317696,32.4237943 26.6125849,32.4237943 C25.8355405,32.4237943 25.1442738,32.8205637 24.9750474,33.6439087 C24.9397272,33.8270033 24.8058209,34.0085495 24.6210691,34.0178397 L22.6462432,33.8041649 C22.4793455,33.7666169 22.2938175,33.6334572 22.3419461,33.3791377 C22.7956748,30.9900049 24.9591339,30.2680781 26.8986396,30.2680781 C27.8895458,30.2680781 29.1859135,30.5316878 29.9672273,31.2799369 C30.9581335,32.2035388 30.8634288,33.4356531 30.8634288,34.7777016 L30.8634288,37.9429541 C30.8634288,38.8955879 31.2597136,39.3132604 31.6319342,39.8261575 C31.7619591,40.0115746 31.7914573,40.2310559 31.625724,40.366151 C31.2092562,40.7141469 30.4694728,41.3547844 30.0630964,41.7159413 L30.0580507,41.7112962 Z M28.0036572,36.7569038 L28.0036572,36.3171671 C26.5303004,36.3171671 24.9731067,36.6314859 24.9731067,38.3621749 C24.9731067,39.2420354 25.4311049,39.8362219 26.2120305,39.8362219 C26.7841401,39.8362219 27.2988058,39.483968 27.6228977,38.91262 C28.0230639,38.2081123 28.0036572,37.5488943 28.0036572,36.7569038 Z M62.8212207,45.7416997 C58.9961598,48.5570209 53.4508889,50.0539063 48.6756759,50.0539063 C41.9834689,50.0539063 35.9565236,47.5865809 31.3959487,43.4799203 C31.0380891,43.1574725 31.3575234,42.7169617 31.7879641,42.9666361 C36.7083392,45.8222149 42.7931165,47.5416782 49.0773946,47.5416782 C53.3169827,47.5416782 57.977308,46.6645274 62.2654128,44.8502265 C62.9120441,44.5769394 63.4542674,45.2752537 62.8212207,45.7416997 Z M64.4129584,43.9293343 C63.9235214,43.3045675 61.1794138,43.6332088 59.9459238,43.7806909 C59.5725389,43.8252065 59.5147069,43.499662 59.8512191,43.2639229 C62.0410713,41.7302638 65.6285942,42.1730972 66.0454502,42.6867685 C66.4654112,43.2046978 65.9352201,46.7918807 63.8831555,48.5036022 C63.5676025,48.7668249 63.2675749,48.6266975 63.4073031,48.2790888 C63.8691826,47.129038 64.9027836,44.5544881 64.4129584,43.9293343 Z M129.303535,39.9527366 C129.677308,39.6751915 129.864001,39.2730028 129.864001,38.7465575 C129.864001,38.3954649 129.749889,38.110178 129.523219,37.8906967 C129.295772,37.6712155 128.881633,37.4521213 128.280026,37.2326401 L126.410772,36.5304549 C124.782938,35.9304621 123.968633,34.9066033 123.968633,33.4588787 C123.968633,32.5085674 124.338524,31.7409637 125.079084,31.1549062 C125.820032,30.5707841 126.791532,30.2777554 127.993971,30.2777554 C128.948004,30.2777554 129.878362,30.4461405 130.788148,30.7825235 C130.963972,30.8409744 131.088952,30.9180058 131.161921,31.0128434 C131.235278,31.1084551 131.271763,31.2505179 131.271763,31.4405802 L131.271763,32.0332183 C131.271763,32.2964409 131.177058,32.4280523 130.986096,32.4280523 C130.883629,32.4280523 130.714014,32.3916656 130.480357,32.3185052 C129.702925,32.0843144 128.910355,31.9674126 128.104201,31.9674126 C126.696439,31.9674126 125.991975,32.4427618 125.991975,33.393073 C125.991975,33.7735846 126.109968,34.0731939 126.344401,34.2926752 C126.578446,34.5121564 127.040714,34.7533148 127.730428,35.0165375 L129.446368,35.6749812 C130.311519,36.0113643 130.934474,36.4096821 131.316398,36.871096 C131.697546,37.3313485 131.887731,37.9274705 131.887731,38.6583004 C131.887731,39.6976429 131.499209,40.5233104 130.721777,41.1376257 C129.944344,41.7519409 128.910355,42.0592921 127.620198,42.0592921 C126.388648,42.0592921 125.281302,41.8545203 124.298935,41.4449768 C124.122334,41.3722035 124.001624,41.2909142 123.935641,41.2038184 C123.870047,41.1163356 123.836279,40.9769824 123.836279,40.7865331 L123.836279,40.1722178 C123.836279,39.9089952 123.924774,39.7773839 124.100986,39.7773839 C124.203066,39.7773839 124.386653,39.8215124 124.650584,39.9089952 C125.61859,40.2163464 126.622693,40.3696348 127.664445,40.3696348 C128.382881,40.3696348 128.929374,40.2310559 129.303535,39.9527366 Z M119.564476,31.0457462 C119.564476,30.7531045 119.711191,30.6071708 120.00462,30.6071708 L121.30254,30.6071708 C121.595969,30.6071708 121.742684,30.7531045 121.742684,31.0457462 L121.742684,41.2909142 C121.742684,41.58433 121.595969,41.7306509 121.30254,41.7306509 L120.357046,41.7306509 C120.209943,41.7306509 120.095831,41.7008448 120.015876,41.6427809 C119.935144,41.58433 119.880029,41.4743958 119.850919,41.3133655 L119.696441,40.5453747 C118.332927,41.5545239 116.932151,42.0592921 115.495279,42.0592921 C114.453915,42.0592921 113.654359,41.7662633 113.096998,41.1817542 C112.539638,40.597245 112.261346,39.7704162 112.261346,38.7024289 L112.261346,31.0457462 C112.261346,30.7531045 112.407672,30.6071708 112.701102,30.6071708 L113.999022,30.6071708 C114.292063,30.6071708 114.439166,30.7531045 114.439166,31.0457462 L114.439166,38.001018 C114.439166,38.7902989 114.593255,39.3717113 114.901045,39.744481 C115.209224,40.1180249 115.700213,40.3042163 116.375178,40.3042163 C117.430903,40.3042163 118.494002,39.9527366 119.564476,39.2509385 L119.564476,31.0457462 Z M107.769471,41.7306509 C107.476041,41.7306509 107.329327,41.58433 107.329327,41.2909142 L107.329327,34.1831281 C107.329327,33.451911 107.189987,32.9107562 106.911306,32.5592765 C106.632626,32.208571 106.19287,32.0332183 105.591651,32.0332183 C104.521177,32.0332183 103.443329,32.3622466 102.357718,33.0203033 C102.372467,33.1232698 102.38023,33.2324298 102.38023,33.3497187 L102.38023,41.2909142 C102.38023,41.58433 102.232739,41.7306509 101.939697,41.7306509 L100.641777,41.7306509 C100.348348,41.7306509 100.202021,41.58433 100.202021,41.2909142 L100.202021,34.1831281 C100.202021,33.451911 100.062681,32.9107562 99.7840011,32.5592765 C99.5049327,32.208571 99.065565,32.0332183 98.4643454,32.0332183 C97.3492363,32.0332183 96.2791507,32.3548919 95.2525362,32.9986261 L95.2525362,41.2909142 C95.2525362,41.58433 95.1058216,41.7306509 94.8127804,41.7306509 L93.5148602,41.7306509 C93.2214308,41.7306509 93.0747162,41.58433 93.0747162,41.2909142 L93.0747162,31.0457462 C93.0747162,30.7531045 93.2214308,30.6071708 93.5148602,30.6071708 L94.4824783,30.6071708 C94.6288048,30.6071708 94.7425281,30.6362027 94.8236481,30.6946536 C94.9039919,30.7531045 94.9591069,30.8630387 94.9886051,31.0236819 L95.1201825,31.7258671 C96.5283328,30.7600722 97.8996103,30.2777554 99.2340151,30.2777554 C100.598306,30.2777554 101.521677,30.7976201 102.00568,31.8358013 C103.45769,30.7976201 104.909699,30.2777554 106.361709,30.2777554 C107.373962,30.2777554 108.150618,30.5634294 108.693618,31.133229 C109.235841,31.7041899 109.507147,32.5159222 109.507147,33.5688128 L109.507147,41.2909142 C109.507147,41.58433 109.360432,41.7306509 109.067391,41.7306509 L107.769471,41.7306509 Z M141.366741,33.0752703 C140.823353,33.6969403 140.552436,34.6875092 140.552436,36.0481381 L140.552436,36.3330379 C140.552436,37.6642478 140.827234,38.6401071 141.37722,39.26139 C141.927206,39.8834471 142.796238,40.1946692 143.984317,40.1946692 C144.600674,40.1946692 145.259725,40.0924769 145.964188,39.887318 C146.125652,39.8435766 146.235494,39.8215124 146.294102,39.8215124 C146.484676,39.8215124 146.579769,39.9678332 146.579769,40.2600878 L146.579769,40.8523388 C146.579769,41.0427881 146.550659,41.1817542 146.492051,41.269237 C146.433442,41.3571069 146.315838,41.4380092 146.140401,41.5111696 C145.421189,41.8177466 144.585148,41.9714222 143.632667,41.9714222 C141.901589,41.9714222 140.578052,41.4778797 139.661668,40.4907947 C138.744507,39.5037097 138.286509,38.0737913 138.286509,36.2014266 C138.286509,34.3441584 138.759644,32.9072724 139.705527,31.8903813 C140.651798,30.8738773 141.990084,30.3660124 143.720386,30.3660124 C144.512179,30.3660124 145.289223,30.5049785 146.051907,30.7825235 C146.21337,30.8409744 146.327094,30.9141349 146.393077,31.0020048 C146.459059,31.0898747 146.492051,31.2361955 146.492051,31.4405802 L146.492051,32.0332183 C146.492051,32.3258599 146.396182,32.4717937 146.205996,32.4717937 C146.133027,32.4717937 146.015422,32.4501165 145.854346,32.405988 C145.252739,32.2306353 144.643756,32.1423783 144.028176,32.1423783 C142.796238,32.1423783 141.908964,32.4536003 141.366741,33.0752703 Z M135.545895,30.6071708 C135.839324,30.6071708 135.985651,30.7531045 135.985651,31.0457462 L135.985651,41.2909142 C135.985651,41.58433 135.839324,41.7306509 135.545895,41.7306509 L134.247974,41.7306509 C133.954545,41.7306509 133.808219,41.58433 133.808219,41.2909142 L133.808219,31.0457462 C133.808219,30.7531045 133.954545,30.6071708 134.247974,30.6071708 L135.545895,30.6071708 Z M135.909188,26.3619312 C136.150608,26.6030896 136.271705,26.9216664 136.271705,27.3165004 C136.271705,27.7109473 136.150608,28.0295242 135.909188,28.2702955 C135.666604,28.511841 135.333197,28.6322266 134.90819,28.6322266 C134.482407,28.6322266 134.149,28.511841 133.907193,28.2702955 C133.664997,28.0295242 133.543899,27.7109473 133.543899,27.3165004 C133.543899,26.9216664 133.664997,26.6030896 133.907193,26.3619312 C134.149,26.1207728 134.482407,26 134.90819,26 C135.333197,26 135.666604,26.1207728 135.909188,26.3619312 Z" id="Combined-Shape"></path>
        </g>
    </g>
</svg>